<mxfile host="app.diagrams.net" modified="2022-04-27T15:42:31.193Z" agent="5.0 (Windows NT 10.0; Win64; x64) AppleWebKit/537.36 (KHTML, like Gecko) Chrome/100.0.4896.127 YaBrowser/22.5.0.1266 (beta) Yowser/2.5 Safari/537.36" etag="giAYvYr-1oRzkrCc968C" version="17.4.6" type="github">
  <diagram id="CTpoCWLqEYEUXU3hu6Lo" name="Page-1">
    <mxGraphModel dx="1463" dy="-3148" grid="1" gridSize="10" guides="1" tooltips="1" connect="1" arrows="1" fold="1" page="1" pageScale="1" pageWidth="827" pageHeight="1169" math="0" shadow="0">
      <root>
        <mxCell id="0" />
        <mxCell id="1" parent="0" />
        <mxCell id="y0orpuPkxlOEABBSiA5m-1" value="начало" style="rounded=1;whiteSpace=wrap;html=1;arcSize=50;" parent="1" vertex="1">
          <mxGeometry x="330" y="3520" width="116" height="30" as="geometry" />
        </mxCell>
        <mxCell id="y0orpuPkxlOEABBSiA5m-2" value="" style="endArrow=none;html=1;rounded=0;entryX=0.5;entryY=1;entryDx=0;entryDy=0;" parent="1" target="y0orpuPkxlOEABBSiA5m-1" edge="1">
          <mxGeometry width="50" height="50" relative="1" as="geometry">
            <mxPoint x="388" y="3570" as="sourcePoint" />
            <mxPoint x="430" y="3560" as="targetPoint" />
          </mxGeometry>
        </mxCell>
        <mxCell id="y0orpuPkxlOEABBSiA5m-3" value="Вывод: &quot;&lt;span&gt;Добро пожаловать в классическую версию игры морской бой!&amp;nbsp;&lt;/span&gt;&lt;div&gt;Выберите действие:&amp;nbsp;&lt;/div&gt;&lt;div&gt;1 - начать игру&amp;nbsp;&lt;/div&gt;&lt;div&gt;2 - выйти из игры :(&amp;nbsp;&lt;/div&gt;&lt;span&gt;Примечание: при ошибке ввода данных будет выбран выход из игры&lt;/span&gt;&quot;" style="shape=parallelogram;perimeter=parallelogramPerimeter;whiteSpace=wrap;html=1;fixedSize=1;" parent="1" vertex="1">
          <mxGeometry x="172.75" y="3570" width="430.5" height="80" as="geometry" />
        </mxCell>
        <mxCell id="y0orpuPkxlOEABBSiA5m-4" value="first_choice = input()" style="rounded=0;whiteSpace=wrap;html=1;" parent="1" vertex="1">
          <mxGeometry x="308" y="3660" width="160" height="20" as="geometry" />
        </mxCell>
        <mxCell id="y0orpuPkxlOEABBSiA5m-5" value="" style="endArrow=none;html=1;rounded=0;entryX=0.5;entryY=1;entryDx=0;entryDy=0;" parent="1" edge="1">
          <mxGeometry width="50" height="50" relative="1" as="geometry">
            <mxPoint x="388" y="3660" as="sourcePoint" />
            <mxPoint x="387.72000000000025" y="3650" as="targetPoint" />
          </mxGeometry>
        </mxCell>
        <mxCell id="y0orpuPkxlOEABBSiA5m-6" value="&lt;span&gt;first_choice == 1&lt;/span&gt;" style="rhombus;whiteSpace=wrap;html=1;" parent="1" vertex="1">
          <mxGeometry x="293" y="3690" width="190" height="40" as="geometry" />
        </mxCell>
        <mxCell id="y0orpuPkxlOEABBSiA5m-7" value="" style="endArrow=none;html=1;rounded=0;entryX=0.5;entryY=1;entryDx=0;entryDy=0;" parent="1" edge="1">
          <mxGeometry width="50" height="50" relative="1" as="geometry">
            <mxPoint x="388" y="3690" as="sourcePoint" />
            <mxPoint x="387.72000000000025" y="3680" as="targetPoint" />
          </mxGeometry>
        </mxCell>
        <mxCell id="y0orpuPkxlOEABBSiA5m-9" value="" style="endArrow=none;html=1;rounded=0;entryX=0.5;entryY=1;entryDx=0;entryDy=0;exitX=0.5;exitY=0;exitDx=0;exitDy=0;" parent="1" edge="1">
          <mxGeometry width="50" height="50" relative="1" as="geometry">
            <mxPoint x="388.0050000000001" y="3750" as="sourcePoint" />
            <mxPoint x="387.72000000000025" y="3730" as="targetPoint" />
          </mxGeometry>
        </mxCell>
        <mxCell id="y0orpuPkxlOEABBSiA5m-19" value="&lt;span&gt;choice_auto_var == 1&lt;/span&gt;" style="rhombus;whiteSpace=wrap;html=1;" parent="1" vertex="1">
          <mxGeometry x="292.92" y="3780" width="190" height="40" as="geometry" />
        </mxCell>
        <mxCell id="y0orpuPkxlOEABBSiA5m-20" value="" style="endArrow=none;html=1;rounded=0;entryX=0.5;entryY=1;entryDx=0;entryDy=0;" parent="1" edge="1">
          <mxGeometry width="50" height="50" relative="1" as="geometry">
            <mxPoint x="387.88" y="3780" as="sourcePoint" />
            <mxPoint x="387.92" y="3750" as="targetPoint" />
          </mxGeometry>
        </mxCell>
        <mxCell id="y0orpuPkxlOEABBSiA5m-21" value="" style="endArrow=none;html=1;rounded=0;exitX=1;exitY=0.5;exitDx=0;exitDy=0;" parent="1" source="y0orpuPkxlOEABBSiA5m-19" edge="1">
          <mxGeometry width="50" height="50" relative="1" as="geometry">
            <mxPoint x="341.92" y="3770" as="sourcePoint" />
            <mxPoint x="529.92" y="3800" as="targetPoint" />
          </mxGeometry>
        </mxCell>
        <mxCell id="y0orpuPkxlOEABBSiA5m-22" value="" style="endArrow=none;html=1;rounded=0;exitX=0;exitY=0.5;exitDx=0;exitDy=0;" parent="1" source="y0orpuPkxlOEABBSiA5m-19" edge="1">
          <mxGeometry width="50" height="50" relative="1" as="geometry">
            <mxPoint x="341.92" y="3770" as="sourcePoint" />
            <mxPoint x="239.92000000000002" y="3800" as="targetPoint" />
          </mxGeometry>
        </mxCell>
        <mxCell id="y0orpuPkxlOEABBSiA5m-23" value="opt_auto_var = True" style="rounded=0;whiteSpace=wrap;html=1;" parent="1" vertex="1">
          <mxGeometry x="160.42000000000002" y="3900" width="160" height="20" as="geometry" />
        </mxCell>
        <mxCell id="y0orpuPkxlOEABBSiA5m-24" value="да" style="text;html=1;strokeColor=none;fillColor=none;align=center;verticalAlign=middle;whiteSpace=wrap;rounded=0;" parent="1" vertex="1">
          <mxGeometry x="271.92" y="3780" width="30" height="20" as="geometry" />
        </mxCell>
        <mxCell id="y0orpuPkxlOEABBSiA5m-26" value="" style="endArrow=classicThin;html=1;rounded=0;endFill=1;" parent="1" edge="1">
          <mxGeometry width="50" height="50" relative="1" as="geometry">
            <mxPoint x="240.40000000000003" y="3798.33" as="sourcePoint" />
            <mxPoint x="239.92000000000002" y="3820" as="targetPoint" />
          </mxGeometry>
        </mxCell>
        <mxCell id="y0orpuPkxlOEABBSiA5m-27" value="" style="endArrow=none;html=1;rounded=0;entryX=0.5;entryY=1;entryDx=0;entryDy=0;" parent="1" edge="1">
          <mxGeometry width="50" height="50" relative="1" as="geometry">
            <mxPoint x="240.54999999999922" y="3930" as="sourcePoint" />
            <mxPoint x="240.27000000000038" y="3920" as="targetPoint" />
          </mxGeometry>
        </mxCell>
        <mxCell id="y0orpuPkxlOEABBSiA5m-28" value="" style="endArrow=none;html=1;rounded=0;startArrow=classicThin;startFill=1;" parent="1" edge="1">
          <mxGeometry width="50" height="50" relative="1" as="geometry">
            <mxPoint x="390.0000000000009" y="4000" as="sourcePoint" />
            <mxPoint x="390.0000000000009" y="3980" as="targetPoint" />
          </mxGeometry>
        </mxCell>
        <mxCell id="y0orpuPkxlOEABBSiA5m-29" value="&lt;pre style=&quot;background-color: rgb(255 , 255 , 255)&quot;&gt;&lt;font face=&quot;Helvetica&quot; color=&quot;#080808&quot;&gt;players.append(Player(name=opt_name, is_ai=False, auto_ship=opt_auto_ship, skill=1))&lt;/font&gt;&lt;font face=&quot;jetbrains mono, monospace&quot; style=&quot;color: rgb(8 , 8 , 8)&quot;&gt;&lt;br&gt;&lt;/font&gt;&lt;/pre&gt;" style="rounded=0;whiteSpace=wrap;html=1;" parent="1" vertex="1">
          <mxGeometry x="147.93000000000004" y="4000" width="479" height="20" as="geometry" />
        </mxCell>
        <mxCell id="y0orpuPkxlOEABBSiA5m-30" value="&lt;pre style=&quot;background-color: rgb(255 , 255 , 255)&quot;&gt;&lt;font face=&quot;Helvetica&quot; color=&quot;#080808&quot;&gt;players.append(Player(name=&quot;Капитан, мой капитан&quot;, is_ai=True, auto_ship=True, skill=1))&lt;/font&gt;&lt;font face=&quot;jetbrains mono, monospace&quot; style=&quot;color: rgb(8 , 8 , 8)&quot;&gt;&lt;br&gt;&lt;/font&gt;&lt;/pre&gt;" style="rounded=0;whiteSpace=wrap;html=1;" parent="1" vertex="1">
          <mxGeometry x="137.43000000000004" y="4030" width="500" height="20" as="geometry" />
        </mxCell>
        <mxCell id="y0orpuPkxlOEABBSiA5m-31" value="" style="endArrow=none;html=1;rounded=0;entryX=0.5;entryY=1;entryDx=0;entryDy=0;" parent="1" edge="1">
          <mxGeometry width="50" height="50" relative="1" as="geometry">
            <mxPoint x="387.2899999999997" y="4030" as="sourcePoint" />
            <mxPoint x="387.00999999999993" y="4020" as="targetPoint" />
          </mxGeometry>
        </mxCell>
        <mxCell id="y0orpuPkxlOEABBSiA5m-33" value="" style="endArrow=classicThin;html=1;rounded=0;fontFamily=Helvetica;fontColor=#080808;endFill=1;" parent="1" edge="1">
          <mxGeometry width="50" height="50" relative="1" as="geometry">
            <mxPoint x="528.68" y="3800" as="sourcePoint" />
            <mxPoint x="528.92" y="3820" as="targetPoint" />
          </mxGeometry>
        </mxCell>
        <mxCell id="y0orpuPkxlOEABBSiA5m-48" value="" style="endArrow=none;html=1;rounded=0;fontFamily=Helvetica;fontColor=#080808;" parent="1" edge="1">
          <mxGeometry width="50" height="50" relative="1" as="geometry">
            <mxPoint x="526.6600000000002" y="3977.59" as="sourcePoint" />
            <mxPoint x="526.6600000000002" y="3967.59" as="targetPoint" />
          </mxGeometry>
        </mxCell>
        <mxCell id="y0orpuPkxlOEABBSiA5m-49" value="" style="endArrow=classicThin;html=1;rounded=0;fontFamily=Helvetica;fontColor=#080808;startArrow=none;startFill=0;endFill=1;" parent="1" edge="1">
          <mxGeometry width="50" height="50" relative="1" as="geometry">
            <mxPoint x="528.43" y="3980" as="sourcePoint" />
            <mxPoint x="390" y="3980" as="targetPoint" />
          </mxGeometry>
        </mxCell>
        <mxCell id="y0orpuPkxlOEABBSiA5m-50" value="" style="endArrow=none;html=1;rounded=0;fontFamily=Helvetica;fontColor=#080808;" parent="1" edge="1">
          <mxGeometry width="50" height="50" relative="1" as="geometry">
            <mxPoint x="392.22000000000105" y="4127" as="sourcePoint" />
            <mxPoint x="391.63" y="4127" as="targetPoint" />
          </mxGeometry>
        </mxCell>
        <mxCell id="y0orpuPkxlOEABBSiA5m-51" value="def ship_placement(arg*)" style="rounded=0;whiteSpace=wrap;html=1;" parent="1" vertex="1">
          <mxGeometry x="159.42000000000002" y="3930" width="160" height="20" as="geometry" />
        </mxCell>
        <mxCell id="y0orpuPkxlOEABBSiA5m-68" value="нет" style="text;html=1;strokeColor=none;fillColor=none;align=center;verticalAlign=middle;whiteSpace=wrap;rounded=0;" parent="1" vertex="1">
          <mxGeometry x="486.64000000000004" y="3780" width="30" height="20" as="geometry" />
        </mxCell>
        <mxCell id="y0orpuPkxlOEABBSiA5m-69" value="" style="endArrow=none;html=1;rounded=0;fontFamily=Helvetica;fontColor=#080808;exitX=0.5;exitY=0;exitDx=0;exitDy=0;entryX=0.5;entryY=1;entryDx=0;entryDy=0;" parent="1" source="y0orpuPkxlOEABBSiA5m-23" target="oBk1mYRn44YAab1flwNJ-35" edge="1">
          <mxGeometry width="50" height="50" relative="1" as="geometry">
            <mxPoint x="360.42" y="3988.33" as="sourcePoint" />
            <mxPoint x="240.42000000000002" y="3868.33" as="targetPoint" />
          </mxGeometry>
        </mxCell>
        <mxCell id="y0orpuPkxlOEABBSiA5m-70" value="&lt;div&gt;Задайте координаты в формате XYZ, где&amp;nbsp;&lt;/div&gt;&lt;div&gt;Z - вариант расположения: вертикально &quot;V&quot;/&quot;В&quot; или горизонтально &quot;H&quot;/&quot;Г&quot;&amp;nbsp;&lt;/div&gt;&lt;div&gt;X - буква, а Y - цифра.&amp;nbsp; &amp;nbsp;Например G5Н&amp;nbsp;&lt;/div&gt;&lt;div&gt;Куда поставить 1-палубный корабль:&amp;nbsp;&lt;/div&gt;" style="shape=parallelogram;perimeter=parallelogramPerimeter;whiteSpace=wrap;html=1;fixedSize=1;" parent="1" vertex="1">
          <mxGeometry x="329.43" y="3860" width="400" height="80" as="geometry" />
        </mxCell>
        <mxCell id="y0orpuPkxlOEABBSiA5m-71" value="def ship_placement(arg*)" style="rounded=0;whiteSpace=wrap;html=1;" parent="1" vertex="1">
          <mxGeometry x="447.94" y="3947.59" width="160" height="20" as="geometry" />
        </mxCell>
        <mxCell id="y0orpuPkxlOEABBSiA5m-72" value="" style="endArrow=none;html=1;rounded=0;fontFamily=Helvetica;fontColor=#080808;exitX=0.5;exitY=0;exitDx=0;exitDy=0;" parent="1" source="y0orpuPkxlOEABBSiA5m-70" edge="1">
          <mxGeometry width="50" height="50" relative="1" as="geometry">
            <mxPoint x="278.68" y="3980" as="sourcePoint" />
            <mxPoint x="528.68" y="3850" as="targetPoint" />
          </mxGeometry>
        </mxCell>
        <mxCell id="y0orpuPkxlOEABBSiA5m-73" value="" style="endArrow=none;html=1;rounded=0;fontFamily=Helvetica;fontColor=#080808;exitX=0.5;exitY=0;exitDx=0;exitDy=0;" parent="1" edge="1">
          <mxGeometry width="50" height="50" relative="1" as="geometry">
            <mxPoint x="529.0600000000002" y="3950" as="sourcePoint" />
            <mxPoint x="529.43" y="3940" as="targetPoint" />
          </mxGeometry>
        </mxCell>
        <mxCell id="y0orpuPkxlOEABBSiA5m-74" value="" style="endArrow=none;html=1;rounded=0;fontFamily=Helvetica;fontColor=#080808;" parent="1" edge="1">
          <mxGeometry width="50" height="50" relative="1" as="geometry">
            <mxPoint x="238.92000000000002" y="3980" as="sourcePoint" />
            <mxPoint x="239.27000000000038" y="3950" as="targetPoint" />
          </mxGeometry>
        </mxCell>
        <mxCell id="y0orpuPkxlOEABBSiA5m-75" value="" style="endArrow=none;html=1;rounded=0;" parent="1" edge="1">
          <mxGeometry width="50" height="50" relative="1" as="geometry">
            <mxPoint x="387.03000000000037" y="4070" as="sourcePoint" />
            <mxPoint x="387.03000000000037" y="4050" as="targetPoint" />
          </mxGeometry>
        </mxCell>
        <mxCell id="y0orpuPkxlOEABBSiA5m-76" value="while True:" style="rhombus;whiteSpace=wrap;html=1;fontFamily=Helvetica;fontColor=#080808;" parent="1" vertex="1">
          <mxGeometry x="312" y="5200" width="138" height="80" as="geometry" />
        </mxCell>
        <mxCell id="y0orpuPkxlOEABBSiA5m-77" value="" style="endArrow=none;html=1;rounded=0;fontFamily=Helvetica;fontColor=#080808;exitX=0.5;exitY=1;exitDx=0;exitDy=0;" parent="1" source="y0orpuPkxlOEABBSiA5m-76" edge="1">
          <mxGeometry width="50" height="50" relative="1" as="geometry">
            <mxPoint x="380" y="5270" as="sourcePoint" />
            <mxPoint x="381" y="5290" as="targetPoint" />
          </mxGeometry>
        </mxCell>
        <mxCell id="y0orpuPkxlOEABBSiA5m-78" value="&lt;pre style=&quot;background-color: rgb(255 , 255 , 255)&quot;&gt;&lt;font face=&quot;Helvetica&quot;&gt;game.status_check(args*)&lt;/font&gt;&lt;/pre&gt;" style="rounded=0;whiteSpace=wrap;html=1;fontFamily=Helvetica;fontColor=#080808;" parent="1" vertex="1">
          <mxGeometry x="299.01" y="5290" width="159" height="30" as="geometry" />
        </mxCell>
        <mxCell id="y0orpuPkxlOEABBSiA5m-79" value="" style="endArrow=none;html=1;rounded=0;fontFamily=Helvetica;fontColor=#080808;entryX=0.5;entryY=1;entryDx=0;entryDy=0;exitX=0.5;exitY=0;exitDx=0;exitDy=0;" parent="1" source="y0orpuPkxlOEABBSiA5m-80" target="y0orpuPkxlOEABBSiA5m-78" edge="1">
          <mxGeometry width="50" height="50" relative="1" as="geometry">
            <mxPoint x="380" y="5330" as="sourcePoint" />
            <mxPoint x="420" y="5300" as="targetPoint" />
          </mxGeometry>
        </mxCell>
        <mxCell id="y0orpuPkxlOEABBSiA5m-80" value="&lt;pre style=&quot;background-color: rgb(255 , 255 , 255)&quot;&gt;&lt;font face=&quot;Helvetica&quot;&gt;if game.status ==&lt;/font&gt; &#39;before game&#39;:&lt;/pre&gt;" style="rhombus;whiteSpace=wrap;html=1;fontFamily=Helvetica;fontColor=#080808;" parent="1" vertex="1">
          <mxGeometry x="238.51" y="5330" width="280" height="50" as="geometry" />
        </mxCell>
        <mxCell id="y0orpuPkxlOEABBSiA5m-81" value="" style="endArrow=none;html=1;rounded=0;fontFamily=Helvetica;fontColor=#080808;entryX=1;entryY=0.5;entryDx=0;entryDy=0;" parent="1" target="y0orpuPkxlOEABBSiA5m-80" edge="1">
          <mxGeometry width="50" height="50" relative="1" as="geometry">
            <mxPoint x="550" y="5355" as="sourcePoint" />
            <mxPoint x="410" y="5400" as="targetPoint" />
          </mxGeometry>
        </mxCell>
        <mxCell id="y0orpuPkxlOEABBSiA5m-82" value="" style="endArrow=classicThin;html=1;rounded=0;fontFamily=Helvetica;fontColor=#080808;endFill=1;" parent="1" edge="1">
          <mxGeometry width="50" height="50" relative="1" as="geometry">
            <mxPoint x="550" y="5355" as="sourcePoint" />
            <mxPoint x="550" y="5390" as="targetPoint" />
          </mxGeometry>
        </mxCell>
        <mxCell id="y0orpuPkxlOEABBSiA5m-84" value="да" style="text;html=1;strokeColor=none;fillColor=none;align=center;verticalAlign=middle;whiteSpace=wrap;rounded=0;" parent="1" vertex="1">
          <mxGeometry x="511.5" y="5338" width="30" height="20" as="geometry" />
        </mxCell>
        <mxCell id="y0orpuPkxlOEABBSiA5m-85" value="" style="endArrow=classicThin;html=1;rounded=0;fontFamily=Helvetica;fontColor=#080808;exitX=0.5;exitY=1;exitDx=0;exitDy=0;endFill=1;entryX=0.5;entryY=0;entryDx=0;entryDy=0;" parent="1" source="y0orpuPkxlOEABBSiA5m-80" target="y0orpuPkxlOEABBSiA5m-87" edge="1">
          <mxGeometry width="50" height="50" relative="1" as="geometry">
            <mxPoint x="390" y="5460" as="sourcePoint" />
            <mxPoint x="379" y="5430" as="targetPoint" />
          </mxGeometry>
        </mxCell>
        <mxCell id="y0orpuPkxlOEABBSiA5m-86" value="нет" style="text;html=1;strokeColor=none;fillColor=none;align=center;verticalAlign=middle;whiteSpace=wrap;rounded=0;" parent="1" vertex="1">
          <mxGeometry x="350" y="5380" width="30" height="20" as="geometry" />
        </mxCell>
        <mxCell id="y0orpuPkxlOEABBSiA5m-87" value="&lt;pre style=&quot;background-color: rgb(255 , 255 , 255)&quot;&gt;&lt;font face=&quot;Helvetica&quot;&gt;if game.status ==&lt;/font&gt; &#39;game&#39;:&lt;/pre&gt;" style="rhombus;whiteSpace=wrap;html=1;fontFamily=Helvetica;fontColor=#080808;" parent="1" vertex="1">
          <mxGeometry x="264.26" y="5425" width="228.51" height="50" as="geometry" />
        </mxCell>
        <mxCell id="y0orpuPkxlOEABBSiA5m-88" value="" style="endArrow=none;html=1;rounded=0;fontFamily=Helvetica;fontColor=#080808;entryX=1;entryY=0.5;entryDx=0;entryDy=0;" parent="1" edge="1">
          <mxGeometry width="50" height="50" relative="1" as="geometry">
            <mxPoint x="650" y="5450" as="sourcePoint" />
            <mxPoint x="492.9300000000003" y="5450" as="targetPoint" />
          </mxGeometry>
        </mxCell>
        <mxCell id="y0orpuPkxlOEABBSiA5m-89" value="" style="endArrow=classicThin;html=1;rounded=0;fontFamily=Helvetica;fontColor=#080808;endFill=1;entryX=0.5;entryY=0;entryDx=0;entryDy=0;" parent="1" target="y0orpuPkxlOEABBSiA5m-91" edge="1">
          <mxGeometry width="50" height="50" relative="1" as="geometry">
            <mxPoint x="650" y="5450" as="sourcePoint" />
            <mxPoint x="610" y="5470" as="targetPoint" />
          </mxGeometry>
        </mxCell>
        <mxCell id="y0orpuPkxlOEABBSiA5m-90" value="да" style="text;html=1;strokeColor=none;fillColor=none;align=center;verticalAlign=middle;whiteSpace=wrap;rounded=0;" parent="1" vertex="1">
          <mxGeometry x="484" y="5430" width="30" height="20" as="geometry" />
        </mxCell>
        <mxCell id="y0orpuPkxlOEABBSiA5m-91" value="&lt;pre style=&quot;background-color: rgb(255 , 255 , 255)&quot;&gt;&lt;pre&gt;&lt;font face=&quot;Helvetica&quot;&gt;Game.clear_screen()&lt;/font&gt;&lt;/pre&gt;&lt;/pre&gt;" style="rounded=0;whiteSpace=wrap;html=1;fontFamily=Helvetica;fontColor=#080808;" parent="1" vertex="1">
          <mxGeometry x="570.41" y="5475" width="160" height="25" as="geometry" />
        </mxCell>
        <mxCell id="y0orpuPkxlOEABBSiA5m-92" value="" style="endArrow=none;html=1;rounded=0;fontFamily=Helvetica;fontColor=#080808;entryX=0.5;entryY=1;entryDx=0;entryDy=0;" parent="1" target="y0orpuPkxlOEABBSiA5m-91" edge="1">
          <mxGeometry width="50" height="50" relative="1" as="geometry">
            <mxPoint x="650.4099999999999" y="5510" as="sourcePoint" />
            <mxPoint x="600.41" y="5430" as="targetPoint" />
          </mxGeometry>
        </mxCell>
        <mxCell id="y0orpuPkxlOEABBSiA5m-93" value="&lt;pre style=&quot;background-color: rgb(255 , 255 , 255)&quot;&gt;&lt;pre&gt;&lt;pre&gt;&lt;font face=&quot;Helvetica&quot;&gt;game.active_player.message.append(&#39;Ждем приказа &lt;/font&gt;&lt;/pre&gt;&lt;pre&gt;&lt;font face=&quot;Helvetica&quot;&gt;(введите сначала букву, затем цифру): &#39;)&lt;/font&gt;&lt;/pre&gt;&lt;/pre&gt;&lt;/pre&gt;" style="rounded=0;whiteSpace=wrap;html=1;fontFamily=Helvetica;fontColor=#080808;" parent="1" vertex="1">
          <mxGeometry x="495.09" y="5510" width="310.64" height="50" as="geometry" />
        </mxCell>
        <mxCell id="y0orpuPkxlOEABBSiA5m-94" value="" style="endArrow=none;html=1;rounded=0;fontFamily=Helvetica;fontColor=#080808;entryX=0.5;entryY=1;entryDx=0;entryDy=0;" parent="1" edge="1">
          <mxGeometry width="50" height="50" relative="1" as="geometry">
            <mxPoint x="650.0900000000001" y="5570" as="sourcePoint" />
            <mxPoint x="650.0900000000001" y="5560" as="targetPoint" />
          </mxGeometry>
        </mxCell>
        <mxCell id="y0orpuPkxlOEABBSiA5m-95" value="&lt;pre style=&quot;background-color: rgb(255 , 255 , 255)&quot;&gt;&lt;pre&gt;&lt;pre&gt;&lt;font face=&quot;Helvetica&quot;&gt;game.draw(arg*) &lt;/font&gt;&lt;/pre&gt;&lt;/pre&gt;&lt;/pre&gt;" style="rounded=0;whiteSpace=wrap;html=1;fontFamily=Helvetica;fontColor=#080808;" parent="1" vertex="1">
          <mxGeometry x="570.0899999999999" y="5570" width="160" height="25" as="geometry" />
        </mxCell>
        <mxCell id="y0orpuPkxlOEABBSiA5m-96" value="" style="endArrow=none;html=1;rounded=0;fontFamily=Helvetica;fontColor=#080808;entryX=0.5;entryY=1;entryDx=0;entryDy=0;" parent="1" edge="1">
          <mxGeometry width="50" height="50" relative="1" as="geometry">
            <mxPoint x="650.7299999999996" y="5605" as="sourcePoint" />
            <mxPoint x="650.7299999999996" y="5595" as="targetPoint" />
          </mxGeometry>
        </mxCell>
        <mxCell id="y0orpuPkxlOEABBSiA5m-97" value="&lt;pre style=&quot;background-color: rgb(255 , 255 , 255)&quot;&gt;&lt;pre&gt;&lt;pre&gt;&lt;font face=&quot;Helvetica&quot;&gt;game.active_player.message.clear(arg*)&lt;/font&gt;&lt;/pre&gt;&lt;/pre&gt;&lt;/pre&gt;" style="rounded=0;whiteSpace=wrap;html=1;fontFamily=Helvetica;fontColor=#080808;" parent="1" vertex="1">
          <mxGeometry x="540.25" y="5605" width="220.32" height="25" as="geometry" />
        </mxCell>
        <mxCell id="y0orpuPkxlOEABBSiA5m-98" value="&lt;pre style=&quot;background-color: rgb(255 , 255 , 255)&quot;&gt;&lt;pre&gt;&lt;pre&gt;&lt;pre&gt;&lt;font face=&quot;Helvetica&quot;&gt;shot_result = game.active_player.make_shot(game.next_player)&lt;/font&gt;&lt;/pre&gt;&lt;/pre&gt;&lt;/pre&gt;&lt;/pre&gt;" style="rounded=0;whiteSpace=wrap;html=1;fontFamily=Helvetica;fontColor=#080808;" parent="1" vertex="1">
          <mxGeometry x="473.79" y="5640" width="353.25" height="25" as="geometry" />
        </mxCell>
        <mxCell id="y0orpuPkxlOEABBSiA5m-99" value="" style="endArrow=none;html=1;rounded=0;fontFamily=Helvetica;fontColor=#080808;entryX=0.5;entryY=1;entryDx=0;entryDy=0;exitX=0.5;exitY=0;exitDx=0;exitDy=0;" parent="1" source="y0orpuPkxlOEABBSiA5m-98" target="y0orpuPkxlOEABBSiA5m-97" edge="1">
          <mxGeometry width="50" height="50" relative="1" as="geometry">
            <mxPoint x="618.93" y="5750" as="sourcePoint" />
            <mxPoint x="668.93" y="5700" as="targetPoint" />
          </mxGeometry>
        </mxCell>
        <mxCell id="y0orpuPkxlOEABBSiA5m-100" value="&lt;pre style=&quot;background-color: rgb(255 , 255 , 255)&quot;&gt;&lt;pre&gt;&lt;font face=&quot;Helvetica&quot;&gt;if shot_result == &#39;miss&#39;:&lt;/font&gt;&lt;/pre&gt;&lt;/pre&gt;" style="rhombus;whiteSpace=wrap;html=1;fontFamily=Helvetica;fontColor=#080808;" parent="1" vertex="1">
          <mxGeometry x="535.83" y="5680" width="228.51" height="40" as="geometry" />
        </mxCell>
        <mxCell id="y0orpuPkxlOEABBSiA5m-101" value="" style="endArrow=none;html=1;rounded=0;fontFamily=Helvetica;fontColor=#080808;entryX=0.5;entryY=1;entryDx=0;entryDy=0;exitX=0.5;exitY=0;exitDx=0;exitDy=0;" parent="1" source="y0orpuPkxlOEABBSiA5m-100" target="y0orpuPkxlOEABBSiA5m-98" edge="1">
          <mxGeometry width="50" height="50" relative="1" as="geometry">
            <mxPoint x="651.5799999999998" y="5675" as="sourcePoint" />
            <mxPoint x="651.9" y="5665" as="targetPoint" />
          </mxGeometry>
        </mxCell>
        <mxCell id="y0orpuPkxlOEABBSiA5m-102" value="&lt;pre style=&quot;background-color: rgb(255 , 255 , 255)&quot;&gt;&lt;pre&gt;&lt;pre&gt;&lt;font face=&quot;Helvetica&quot;&gt;game.next_player.message.append(&#39;На этот раз {} промахнулся! &#39;&lt;/font&gt;&lt;/pre&gt;&lt;pre&gt;&lt;font face=&quot;Helvetica&quot;&gt;.format(game.active_player.name))(введите сначала букву, затем цифру): &#39;)&lt;/font&gt;&lt;br&gt;&lt;/pre&gt;&lt;/pre&gt;&lt;/pre&gt;" style="rounded=0;whiteSpace=wrap;html=1;fontFamily=Helvetica;fontColor=#080808;" parent="1" vertex="1">
          <mxGeometry x="690.99" y="5730" width="428.17" height="50" as="geometry" />
        </mxCell>
        <mxCell id="y0orpuPkxlOEABBSiA5m-103" value="&lt;pre style=&quot;background-color: rgb(255 , 255 , 255)&quot;&gt;&lt;pre&gt;&lt;pre&gt;&lt;pre&gt;&lt;font face=&quot;Helvetica&quot;&gt;game.next_player.message.append(&#39;Ваш ход, {}! &#39;.format(game.next_player.name))&lt;/font&gt;&lt;/pre&gt;&lt;/pre&gt;&lt;/pre&gt;&lt;/pre&gt;" style="rounded=0;whiteSpace=wrap;html=1;fontFamily=Helvetica;fontColor=#080808;" parent="1" vertex="1">
          <mxGeometry x="677.99" y="5790" width="454.17" height="30" as="geometry" />
        </mxCell>
        <mxCell id="y0orpuPkxlOEABBSiA5m-104" value="" style="endArrow=none;html=1;rounded=0;fontFamily=Helvetica;fontColor=#080808;exitX=0.5;exitY=0;exitDx=0;exitDy=0;" parent="1" edge="1">
          <mxGeometry width="50" height="50" relative="1" as="geometry">
            <mxPoint x="910.0249999999996" y="5790" as="sourcePoint" />
            <mxPoint x="909.96" y="5780" as="targetPoint" />
          </mxGeometry>
        </mxCell>
        <mxCell id="y0orpuPkxlOEABBSiA5m-105" value="" style="endArrow=none;html=1;rounded=0;fontFamily=Helvetica;fontColor=#080808;entryX=1;entryY=0.5;entryDx=0;entryDy=0;" parent="1" target="y0orpuPkxlOEABBSiA5m-100" edge="1">
          <mxGeometry width="50" height="50" relative="1" as="geometry">
            <mxPoint x="910" y="5700" as="sourcePoint" />
            <mxPoint x="870" y="5790" as="targetPoint" />
          </mxGeometry>
        </mxCell>
        <mxCell id="y0orpuPkxlOEABBSiA5m-106" value="" style="endArrow=none;html=1;rounded=0;fontFamily=Helvetica;fontColor=#080808;endFill=0;startArrow=classicThin;startFill=1;" parent="1" edge="1">
          <mxGeometry width="50" height="50" relative="1" as="geometry">
            <mxPoint x="910" y="5730" as="sourcePoint" />
            <mxPoint x="910" y="5700" as="targetPoint" />
          </mxGeometry>
        </mxCell>
        <mxCell id="y0orpuPkxlOEABBSiA5m-107" value="&lt;pre style=&quot;background-color: rgb(255 , 255 , 255) ; color: rgb(8 , 8 , 8)&quot;&gt;&lt;font face=&quot;Helvetica&quot;&gt;game.change_players() &lt;/font&gt;&lt;/pre&gt;" style="rounded=0;whiteSpace=wrap;html=1;fontFamily=Helvetica;fontColor=#080808;" parent="1" vertex="1">
          <mxGeometry x="827.04" y="5830" width="170" height="30" as="geometry" />
        </mxCell>
        <mxCell id="y0orpuPkxlOEABBSiA5m-108" value="" style="endArrow=none;html=1;rounded=0;fontFamily=Helvetica;fontColor=#080808;exitX=0.489;exitY=-0.026;exitDx=0;exitDy=0;exitPerimeter=0;" parent="1" source="y0orpuPkxlOEABBSiA5m-107" edge="1">
          <mxGeometry width="50" height="50" relative="1" as="geometry">
            <mxPoint x="850" y="5870" as="sourcePoint" />
            <mxPoint x="910" y="5820" as="targetPoint" />
          </mxGeometry>
        </mxCell>
        <mxCell id="y0orpuPkxlOEABBSiA5m-109" value="да" style="text;html=1;strokeColor=none;fillColor=none;align=center;verticalAlign=middle;whiteSpace=wrap;rounded=0;" parent="1" vertex="1">
          <mxGeometry x="755.5" y="5680" width="30" height="20" as="geometry" />
        </mxCell>
        <mxCell id="y0orpuPkxlOEABBSiA5m-110" value="&lt;pre style=&quot;background-color: rgb(255 , 255 , 255) ; color: rgb(8 , 8 , 8)&quot;&gt;&lt;font face=&quot;Helvetica&quot;&gt;contintue&lt;/font&gt;&lt;/pre&gt;" style="rounded=0;whiteSpace=wrap;html=1;fontFamily=Helvetica;fontColor=#080808;" parent="1" vertex="1">
          <mxGeometry x="827.04" y="5870" width="170" height="30" as="geometry" />
        </mxCell>
        <mxCell id="y0orpuPkxlOEABBSiA5m-111" value="" style="endArrow=none;html=1;rounded=0;fontFamily=Helvetica;fontColor=#080808;exitX=0.489;exitY=-0.026;exitDx=0;exitDy=0;exitPerimeter=0;" parent="1" edge="1">
          <mxGeometry width="50" height="50" relative="1" as="geometry">
            <mxPoint x="911.8699999999999" y="5869.22" as="sourcePoint" />
            <mxPoint x="911.6999999999998" y="5860" as="targetPoint" />
          </mxGeometry>
        </mxCell>
        <mxCell id="y0orpuPkxlOEABBSiA5m-112" value="" style="endArrow=classicThin;html=1;rounded=0;fontFamily=Helvetica;fontColor=#080808;exitX=0.5;exitY=1;exitDx=0;exitDy=0;endFill=1;entryX=0.5;entryY=0;entryDx=0;entryDy=0;" parent="1" source="y0orpuPkxlOEABBSiA5m-100" target="y0orpuPkxlOEABBSiA5m-113" edge="1">
          <mxGeometry width="50" height="50" relative="1" as="geometry">
            <mxPoint x="640" y="5870" as="sourcePoint" />
            <mxPoint x="650" y="5890" as="targetPoint" />
          </mxGeometry>
        </mxCell>
        <mxCell id="y0orpuPkxlOEABBSiA5m-113" value="&lt;pre style=&quot;background-color: rgb(255 , 255 , 255)&quot;&gt;&lt;pre&gt;&lt;font face=&quot;Helvetica&quot;&gt;if shot_result == &#39;retry&#39;:&lt;/font&gt;&lt;/pre&gt;&lt;/pre&gt;" style="rhombus;whiteSpace=wrap;html=1;fontFamily=Helvetica;fontColor=#080808;" parent="1" vertex="1">
          <mxGeometry x="535.8300000000002" y="5910" width="228.51" height="40" as="geometry" />
        </mxCell>
        <mxCell id="y0orpuPkxlOEABBSiA5m-114" value="&lt;pre style=&quot;background-color: rgb(255 , 255 , 255)&quot;&gt;&lt;pre&gt;&lt;pre&gt;&lt;pre&gt;&lt;pre&gt;&lt;font face=&quot;Helvetica&quot;&gt;game.active_player.message.append(&#39;Ошибка введенных данных. &lt;/font&gt;&lt;/pre&gt;&lt;pre&gt;&lt;font face=&quot;Helvetica&quot;&gt;Попробуйте еще раз! &#39;)&lt;/font&gt;&lt;/pre&gt;&lt;/pre&gt;&lt;/pre&gt;&lt;/pre&gt;&lt;/pre&gt;" style="rounded=0;whiteSpace=wrap;html=1;fontFamily=Helvetica;fontColor=#080808;" parent="1" vertex="1">
          <mxGeometry x="730" y="5961" width="382.16" height="50" as="geometry" />
        </mxCell>
        <mxCell id="y0orpuPkxlOEABBSiA5m-115" value="&lt;pre style=&quot;background-color: rgb(255 , 255 , 255) ; color: rgb(8 , 8 , 8)&quot;&gt;&lt;font face=&quot;Helvetica&quot;&gt;contintue&lt;/font&gt;&lt;/pre&gt;" style="rounded=0;whiteSpace=wrap;html=1;fontFamily=Helvetica;fontColor=#080808;" parent="1" vertex="1">
          <mxGeometry x="836.08" y="6020" width="170" height="30" as="geometry" />
        </mxCell>
        <mxCell id="y0orpuPkxlOEABBSiA5m-116" value="" style="endArrow=none;html=1;rounded=0;fontFamily=Helvetica;fontColor=#080808;exitX=0.5;exitY=0;exitDx=0;exitDy=0;" parent="1" source="y0orpuPkxlOEABBSiA5m-115" target="y0orpuPkxlOEABBSiA5m-114" edge="1">
          <mxGeometry width="50" height="50" relative="1" as="geometry">
            <mxPoint x="850" y="6040" as="sourcePoint" />
            <mxPoint x="910" y="6040" as="targetPoint" />
          </mxGeometry>
        </mxCell>
        <mxCell id="y0orpuPkxlOEABBSiA5m-117" value="" style="endArrow=none;html=1;rounded=0;fontFamily=Helvetica;fontColor=#080808;exitX=1;exitY=0.5;exitDx=0;exitDy=0;" parent="1" source="y0orpuPkxlOEABBSiA5m-113" edge="1">
          <mxGeometry width="50" height="50" relative="1" as="geometry">
            <mxPoint x="810" y="5970" as="sourcePoint" />
            <mxPoint x="920" y="5930" as="targetPoint" />
          </mxGeometry>
        </mxCell>
        <mxCell id="y0orpuPkxlOEABBSiA5m-118" value="" style="endArrow=classicThin;html=1;rounded=0;fontFamily=Helvetica;fontColor=#080808;entryX=0.498;entryY=-0.035;entryDx=0;entryDy=0;entryPerimeter=0;endFill=1;" parent="1" target="y0orpuPkxlOEABBSiA5m-114" edge="1">
          <mxGeometry width="50" height="50" relative="1" as="geometry">
            <mxPoint x="920" y="5930" as="sourcePoint" />
            <mxPoint x="860" y="5920" as="targetPoint" />
          </mxGeometry>
        </mxCell>
        <mxCell id="y0orpuPkxlOEABBSiA5m-119" value="да" style="text;html=1;strokeColor=none;fillColor=none;align=center;verticalAlign=middle;whiteSpace=wrap;rounded=0;" parent="1" vertex="1">
          <mxGeometry x="760.57" y="5910" width="30" height="20" as="geometry" />
        </mxCell>
        <mxCell id="y0orpuPkxlOEABBSiA5m-120" value="нет" style="text;html=1;strokeColor=none;fillColor=none;align=center;verticalAlign=middle;whiteSpace=wrap;rounded=0;" parent="1" vertex="1">
          <mxGeometry x="615" y="5720" width="30" height="20" as="geometry" />
        </mxCell>
        <mxCell id="y0orpuPkxlOEABBSiA5m-121" value="нет" style="text;html=1;strokeColor=none;fillColor=none;align=center;verticalAlign=middle;whiteSpace=wrap;rounded=0;" parent="1" vertex="1">
          <mxGeometry x="615" y="5951" width="30" height="20" as="geometry" />
        </mxCell>
        <mxCell id="y0orpuPkxlOEABBSiA5m-122" value="" style="endArrow=classicThin;html=1;rounded=0;fontFamily=Helvetica;fontColor=#080808;exitX=0.5;exitY=1;exitDx=0;exitDy=0;endFill=1;entryX=0.5;entryY=0;entryDx=0;entryDy=0;" parent="1" target="y0orpuPkxlOEABBSiA5m-123" edge="1">
          <mxGeometry width="50" height="50" relative="1" as="geometry">
            <mxPoint x="649.7450000000008" y="5950" as="sourcePoint" />
            <mxPoint x="650" y="6040" as="targetPoint" />
          </mxGeometry>
        </mxCell>
        <mxCell id="y0orpuPkxlOEABBSiA5m-123" value="&lt;pre style=&quot;background-color: rgb(255 , 255 , 255)&quot;&gt;&lt;pre&gt;&lt;font face=&quot;Helvetica&quot;&gt;if shot_result == &#39;catch&#39;:&lt;/font&gt;&lt;/pre&gt;&lt;/pre&gt;" style="rhombus;whiteSpace=wrap;html=1;fontFamily=Helvetica;fontColor=#080808;" parent="1" vertex="1">
          <mxGeometry x="535.8300000000002" y="6050" width="228.51" height="40" as="geometry" />
        </mxCell>
        <mxCell id="y0orpuPkxlOEABBSiA5m-124" value="&lt;pre style=&quot;background-color: rgb(255 , 255 , 255)&quot;&gt;&lt;pre&gt;&lt;pre&gt;&lt;pre&gt;&lt;pre&gt;&lt;pre&gt;&lt;font face=&quot;Helvetica&quot;&gt;game.active_player.message.append&lt;/font&gt;&lt;/pre&gt;&lt;pre&gt;&lt;font face=&quot;Helvetica&quot;&gt;(&#39;Отличный выстрел! Продолжайте! &#39;)&lt;/font&gt;&lt;/pre&gt;&lt;/pre&gt;&lt;/pre&gt;&lt;/pre&gt;&lt;/pre&gt;&lt;/pre&gt;" style="rounded=0;whiteSpace=wrap;html=1;fontFamily=Helvetica;fontColor=#080808;" parent="1" vertex="1">
          <mxGeometry x="764.88" y="6101" width="232.16" height="50" as="geometry" />
        </mxCell>
        <mxCell id="y0orpuPkxlOEABBSiA5m-125" value="&lt;pre style=&quot;background-color: rgb(255 , 255 , 255) ; color: rgb(8 , 8 , 8)&quot;&gt;&lt;font face=&quot;Helvetica&quot;&gt;contintue&lt;/font&gt;&lt;/pre&gt;" style="rounded=0;whiteSpace=wrap;html=1;fontFamily=Helvetica;fontColor=#080808;" parent="1" vertex="1">
          <mxGeometry x="795.96" y="6220" width="170" height="30" as="geometry" />
        </mxCell>
        <mxCell id="y0orpuPkxlOEABBSiA5m-126" value="" style="endArrow=none;html=1;rounded=0;fontFamily=Helvetica;fontColor=#080808;exitX=0.5;exitY=0;exitDx=0;exitDy=0;" parent="1" source="y0orpuPkxlOEABBSiA5m-125" target="y0orpuPkxlOEABBSiA5m-130" edge="1">
          <mxGeometry width="50" height="50" relative="1" as="geometry">
            <mxPoint x="809.88" y="6180" as="sourcePoint" />
            <mxPoint x="880.88" y="6240" as="targetPoint" />
          </mxGeometry>
        </mxCell>
        <mxCell id="y0orpuPkxlOEABBSiA5m-127" value="" style="endArrow=none;html=1;rounded=0;fontFamily=Helvetica;fontColor=#080808;exitX=1;exitY=0.5;exitDx=0;exitDy=0;" parent="1" edge="1">
          <mxGeometry width="50" height="50" relative="1" as="geometry">
            <mxPoint x="764.3400000000001" y="6070" as="sourcePoint" />
            <mxPoint x="880" y="6070" as="targetPoint" />
          </mxGeometry>
        </mxCell>
        <mxCell id="y0orpuPkxlOEABBSiA5m-128" value="" style="endArrow=classicThin;html=1;rounded=0;fontFamily=Helvetica;fontColor=#080808;entryX=0.498;entryY=-0.035;entryDx=0;entryDy=0;entryPerimeter=0;endFill=1;" parent="1" target="y0orpuPkxlOEABBSiA5m-124" edge="1">
          <mxGeometry width="50" height="50" relative="1" as="geometry">
            <mxPoint x="880" y="6070" as="sourcePoint" />
            <mxPoint x="860" y="6060" as="targetPoint" />
          </mxGeometry>
        </mxCell>
        <mxCell id="y0orpuPkxlOEABBSiA5m-129" value="да" style="text;html=1;strokeColor=none;fillColor=none;align=center;verticalAlign=middle;whiteSpace=wrap;rounded=0;" parent="1" vertex="1">
          <mxGeometry x="760.57" y="6050" width="30" height="20" as="geometry" />
        </mxCell>
        <mxCell id="y0orpuPkxlOEABBSiA5m-130" value="&lt;pre style=&quot;background-color: rgb(255 , 255 , 255)&quot;&gt;&lt;pre&gt;&lt;pre&gt;&lt;pre&gt;&lt;pre&gt;&lt;pre&gt;&lt;pre&gt;&lt;font face=&quot;Helvetica&quot;&gt;game.next_player.message.append&lt;/font&gt;&lt;/pre&gt;&lt;pre&gt;&lt;font face=&quot;Helvetica&quot;&gt;(&#39;Наш корабль попал под обстрел :( &#39;)&lt;/font&gt;&lt;/pre&gt;&lt;/pre&gt;&lt;/pre&gt;&lt;/pre&gt;&lt;/pre&gt;&lt;/pre&gt;&lt;/pre&gt;" style="rounded=0;whiteSpace=wrap;html=1;fontFamily=Helvetica;fontColor=#080808;" parent="1" vertex="1">
          <mxGeometry x="764.88" y="6160" width="232.16" height="50" as="geometry" />
        </mxCell>
        <mxCell id="y0orpuPkxlOEABBSiA5m-131" value="" style="endArrow=none;html=1;rounded=0;fontFamily=Helvetica;fontColor=#080808;exitX=0.5;exitY=0;exitDx=0;exitDy=0;" parent="1" edge="1">
          <mxGeometry width="50" height="50" relative="1" as="geometry">
            <mxPoint x="880.6300000000001" y="6160" as="sourcePoint" />
            <mxPoint x="880.6300000000001" y="6151" as="targetPoint" />
          </mxGeometry>
        </mxCell>
        <mxCell id="y0orpuPkxlOEABBSiA5m-132" value="" style="endArrow=classicThin;html=1;rounded=0;fontFamily=Helvetica;fontColor=#080808;exitX=0.5;exitY=1;exitDx=0;exitDy=0;endFill=1;entryX=0.5;entryY=0;entryDx=0;entryDy=0;" parent="1" target="y0orpuPkxlOEABBSiA5m-134" edge="1">
          <mxGeometry width="50" height="50" relative="1" as="geometry">
            <mxPoint x="650.0749999999998" y="6090" as="sourcePoint" />
            <mxPoint x="650" y="6220" as="targetPoint" />
          </mxGeometry>
        </mxCell>
        <mxCell id="y0orpuPkxlOEABBSiA5m-133" value="нет" style="text;html=1;strokeColor=none;fillColor=none;align=center;verticalAlign=middle;whiteSpace=wrap;rounded=0;" parent="1" vertex="1">
          <mxGeometry x="615" y="6090" width="30" height="20" as="geometry" />
        </mxCell>
        <mxCell id="y0orpuPkxlOEABBSiA5m-134" value="&lt;pre style=&quot;background-color: rgb(255 , 255 , 255)&quot;&gt;&lt;pre&gt;&lt;font face=&quot;Helvetica&quot;&gt;if shot_result == &#39;kill&#39;:&lt;/font&gt;&lt;/pre&gt;&lt;/pre&gt;" style="rhombus;whiteSpace=wrap;html=1;fontFamily=Helvetica;fontColor=#080808;" parent="1" vertex="1">
          <mxGeometry x="535.8300000000002" y="6250" width="228.51" height="40" as="geometry" />
        </mxCell>
        <mxCell id="y0orpuPkxlOEABBSiA5m-135" value="&lt;pre style=&quot;background-color: rgb(255 , 255 , 255)&quot;&gt;&lt;pre&gt;&lt;pre&gt;&lt;pre&gt;&lt;pre&gt;&lt;pre&gt;&lt;pre&gt;&lt;font face=&quot;Helvetica&quot;&gt;game.active_player.message.append&lt;/font&gt;&lt;/pre&gt;&lt;pre&gt;&lt;font face=&quot;Helvetica&quot;&gt;(&#39;Корабль противника уничтожен! Продолжайте! &#39;)&lt;/font&gt;&lt;/pre&gt;&lt;/pre&gt;&lt;/pre&gt;&lt;/pre&gt;&lt;/pre&gt;&lt;/pre&gt;&lt;/pre&gt;" style="rounded=0;whiteSpace=wrap;html=1;fontFamily=Helvetica;fontColor=#080808;" parent="1" vertex="1">
          <mxGeometry x="754.54" y="6301" width="315" height="50" as="geometry" />
        </mxCell>
        <mxCell id="y0orpuPkxlOEABBSiA5m-136" value="&lt;pre style=&quot;background-color: rgb(255 , 255 , 255) ; color: rgb(8 , 8 , 8)&quot;&gt;&lt;font face=&quot;Helvetica&quot;&gt;contintue&lt;/font&gt;&lt;/pre&gt;" style="rounded=0;whiteSpace=wrap;html=1;fontFamily=Helvetica;fontColor=#080808;" parent="1" vertex="1">
          <mxGeometry x="827.04" y="6420" width="170" height="30" as="geometry" />
        </mxCell>
        <mxCell id="y0orpuPkxlOEABBSiA5m-137" value="" style="endArrow=none;html=1;rounded=0;fontFamily=Helvetica;fontColor=#080808;exitX=0.5;exitY=0;exitDx=0;exitDy=0;" parent="1" source="y0orpuPkxlOEABBSiA5m-136" target="y0orpuPkxlOEABBSiA5m-141" edge="1">
          <mxGeometry width="50" height="50" relative="1" as="geometry">
            <mxPoint x="799.54" y="6380" as="sourcePoint" />
            <mxPoint x="870.54" y="6440" as="targetPoint" />
          </mxGeometry>
        </mxCell>
        <mxCell id="y0orpuPkxlOEABBSiA5m-138" value="" style="endArrow=none;html=1;rounded=0;fontFamily=Helvetica;fontColor=#080808;exitX=1;exitY=0.5;exitDx=0;exitDy=0;" parent="1" edge="1">
          <mxGeometry width="50" height="50" relative="1" as="geometry">
            <mxPoint x="764.3400000000001" y="6270" as="sourcePoint" />
            <mxPoint x="910" y="6270" as="targetPoint" />
          </mxGeometry>
        </mxCell>
        <mxCell id="y0orpuPkxlOEABBSiA5m-139" value="" style="endArrow=classicThin;html=1;rounded=0;fontFamily=Helvetica;fontColor=#080808;endFill=1;" parent="1" edge="1">
          <mxGeometry width="50" height="50" relative="1" as="geometry">
            <mxPoint x="911.6999999999998" y="6271" as="sourcePoint" />
            <mxPoint x="911.6999999999998" y="6301" as="targetPoint" />
          </mxGeometry>
        </mxCell>
        <mxCell id="y0orpuPkxlOEABBSiA5m-140" value="да" style="text;html=1;strokeColor=none;fillColor=none;align=center;verticalAlign=middle;whiteSpace=wrap;rounded=0;" parent="1" vertex="1">
          <mxGeometry x="760.57" y="6250" width="30" height="20" as="geometry" />
        </mxCell>
        <mxCell id="y0orpuPkxlOEABBSiA5m-141" value="&lt;pre style=&quot;background-color: rgb(255 , 255 , 255)&quot;&gt;&lt;pre&gt;&lt;pre&gt;&lt;pre&gt;&lt;pre&gt;&lt;pre&gt;&lt;pre&gt;&lt;pre&gt;&lt;font face=&quot;Helvetica&quot;&gt;game.next_player.message.append&lt;/font&gt;&lt;/pre&gt;&lt;pre&gt;&lt;font face=&quot;Helvetica&quot;&gt;(&#39;Плохие новости: наш корабль уничтожен :(&#39;)&lt;/font&gt;&lt;font face=&quot;JetBrains Mono, monospace&quot;&gt;&lt;br&gt;&lt;/font&gt;&lt;/pre&gt;&lt;/pre&gt;&lt;/pre&gt;&lt;/pre&gt;&lt;/pre&gt;&lt;/pre&gt;&lt;/pre&gt;&lt;/pre&gt;" style="rounded=0;whiteSpace=wrap;html=1;fontFamily=Helvetica;fontColor=#080808;" parent="1" vertex="1">
          <mxGeometry x="754.54" y="6360" width="315.46" height="50" as="geometry" />
        </mxCell>
        <mxCell id="y0orpuPkxlOEABBSiA5m-142" value="" style="endArrow=none;html=1;rounded=0;fontFamily=Helvetica;fontColor=#080808;exitX=0.5;exitY=0;exitDx=0;exitDy=0;" parent="1" edge="1">
          <mxGeometry width="50" height="50" relative="1" as="geometry">
            <mxPoint x="870.289999999999" y="6360" as="sourcePoint" />
            <mxPoint x="870.289999999999" y="6351" as="targetPoint" />
          </mxGeometry>
        </mxCell>
        <mxCell id="y0orpuPkxlOEABBSiA5m-143" value="" style="endArrow=classic;html=1;rounded=0;fontFamily=Helvetica;fontColor=#080808;exitX=0.5;exitY=1;exitDx=0;exitDy=0;entryX=0.5;entryY=0;entryDx=0;entryDy=0;" parent="1" source="y0orpuPkxlOEABBSiA5m-87" target="y0orpuPkxlOEABBSiA5m-144" edge="1">
          <mxGeometry width="50" height="50" relative="1" as="geometry">
            <mxPoint x="500" y="5830" as="sourcePoint" />
            <mxPoint x="380" y="6500.940946691177" as="targetPoint" />
          </mxGeometry>
        </mxCell>
        <mxCell id="y0orpuPkxlOEABBSiA5m-144" value="&lt;pre style=&quot;background-color: rgb(255 , 255 , 255)&quot;&gt;&lt;font face=&quot;Helvetica&quot;&gt;if game.status ==&lt;/font&gt; &#39;game over&#39;:&lt;/pre&gt;" style="rhombus;whiteSpace=wrap;html=1;fontFamily=Helvetica;fontColor=#080808;" parent="1" vertex="1">
          <mxGeometry x="246.38" y="6450" width="263.25" height="50" as="geometry" />
        </mxCell>
        <mxCell id="y0orpuPkxlOEABBSiA5m-145" value="нет" style="text;html=1;strokeColor=none;fillColor=none;align=center;verticalAlign=middle;whiteSpace=wrap;rounded=0;" parent="1" vertex="1">
          <mxGeometry x="350" y="5480" width="30" height="20" as="geometry" />
        </mxCell>
        <mxCell id="y0orpuPkxlOEABBSiA5m-146" value="" style="endArrow=none;html=1;rounded=0;fontFamily=Helvetica;fontColor=#080808;entryX=0.505;entryY=1.005;entryDx=0;entryDy=0;entryPerimeter=0;startArrow=classicThin;startFill=1;" parent="1" target="y0orpuPkxlOEABBSiA5m-144" edge="1">
          <mxGeometry width="50" height="50" relative="1" as="geometry">
            <mxPoint x="380" y="6520" as="sourcePoint" />
            <mxPoint x="380" y="6500" as="targetPoint" />
          </mxGeometry>
        </mxCell>
        <mxCell id="y0orpuPkxlOEABBSiA5m-147" value="&lt;pre style=&quot;background-color: rgb(255 , 255 , 255)&quot;&gt;&lt;pre&gt;&lt;font face=&quot;Helvetica&quot;&gt;Game.clear_screen()&lt;/font&gt;&lt;/pre&gt;&lt;/pre&gt;" style="rounded=0;whiteSpace=wrap;html=1;fontFamily=Helvetica;fontColor=#080808;" parent="1" vertex="1">
          <mxGeometry x="295" y="6520" width="170" height="30" as="geometry" />
        </mxCell>
        <mxCell id="y0orpuPkxlOEABBSiA5m-148" value="&lt;pre style=&quot;background-color: rgb(255 , 255 , 255)&quot;&gt;&lt;pre&gt;&lt;pre&gt;&lt;font face=&quot;Helvetica&quot;&gt;game.next_player.play_ground.draw_play_ground(Play_ground_mark.main)&lt;/font&gt;&lt;/pre&gt;&lt;/pre&gt;&lt;/pre&gt;" style="rounded=0;whiteSpace=wrap;html=1;fontFamily=Helvetica;fontColor=#080808;" parent="1" vertex="1">
          <mxGeometry x="170" y="6560" width="420" height="40" as="geometry" />
        </mxCell>
        <mxCell id="y0orpuPkxlOEABBSiA5m-149" value="" style="endArrow=none;html=1;rounded=0;fontFamily=Helvetica;fontColor=#080808;exitX=0.5;exitY=1;exitDx=0;exitDy=0;entryX=0.5;entryY=0;entryDx=0;entryDy=0;" parent="1" source="y0orpuPkxlOEABBSiA5m-147" target="y0orpuPkxlOEABBSiA5m-148" edge="1">
          <mxGeometry width="50" height="50" relative="1" as="geometry">
            <mxPoint x="440" y="6500" as="sourcePoint" />
            <mxPoint x="490" y="6450" as="targetPoint" />
          </mxGeometry>
        </mxCell>
        <mxCell id="y0orpuPkxlOEABBSiA5m-150" value="&lt;pre style=&quot;background-color: rgb(255 , 255 , 255)&quot;&gt;&lt;pre&gt;&lt;pre&gt;&lt;pre&gt;&lt;font face=&quot;Helvetica&quot;&gt;game.active_player.play_ground.draw_play_ground(Play_ground_mark.main)&lt;/font&gt;&lt;/pre&gt;&lt;/pre&gt;&lt;/pre&gt;&lt;/pre&gt;" style="rounded=0;whiteSpace=wrap;html=1;fontFamily=Helvetica;fontColor=#080808;" parent="1" vertex="1">
          <mxGeometry x="171" y="6610" width="418" height="40" as="geometry" />
        </mxCell>
        <mxCell id="y0orpuPkxlOEABBSiA5m-151" value="" style="endArrow=none;html=1;rounded=0;fontFamily=Helvetica;fontColor=#080808;exitX=0.5;exitY=1;exitDx=0;exitDy=0;entryX=0.5;entryY=0;entryDx=0;entryDy=0;" parent="1" edge="1">
          <mxGeometry width="50" height="50" relative="1" as="geometry">
            <mxPoint x="379.2300000000005" y="6600" as="sourcePoint" />
            <mxPoint x="379.2300000000005" y="6610" as="targetPoint" />
          </mxGeometry>
        </mxCell>
        <mxCell id="y0orpuPkxlOEABBSiA5m-152" value="&lt;pre style=&quot;background-color: rgb(255 , 255 , 255)&quot;&gt;&lt;pre&gt;&lt;pre&gt;&lt;pre&gt;&lt;pre&gt;&lt;font face=&quot;Helvetica&quot;&gt;print(&#39;Это был последний корабль {}&#39;.format(game.next_player.name))&lt;/font&gt;&lt;/pre&gt;&lt;/pre&gt;&lt;/pre&gt;&lt;/pre&gt;&lt;/pre&gt;" style="rounded=0;whiteSpace=wrap;html=1;fontFamily=Helvetica;fontColor=#080808;" parent="1" vertex="1">
          <mxGeometry x="169.5" y="6660" width="418" height="40" as="geometry" />
        </mxCell>
        <mxCell id="y0orpuPkxlOEABBSiA5m-153" value="&lt;pre style=&quot;background-color: rgb(255 , 255 , 255)&quot;&gt;&lt;pre&gt;&lt;pre&gt;&lt;pre&gt;&lt;pre&gt;&lt;pre&gt;&lt;font face=&quot;Helvetica&quot;&gt;print(&#39;{} выиграл эту игру! Тут можно только поздравить победителя!&#39;.format(game.active_player.name))&lt;/font&gt;&lt;/pre&gt;&lt;/pre&gt;&lt;/pre&gt;&lt;/pre&gt;&lt;/pre&gt;&lt;/pre&gt;" style="rounded=0;whiteSpace=wrap;html=1;fontFamily=Helvetica;fontColor=#080808;" parent="1" vertex="1">
          <mxGeometry x="98" y="6710" width="580" height="30" as="geometry" />
        </mxCell>
        <mxCell id="y0orpuPkxlOEABBSiA5m-154" value="&lt;pre style=&quot;background-color: rgb(255 , 255 , 255)&quot;&gt;&lt;pre&gt;&lt;pre&gt;&lt;pre&gt;&lt;pre&gt;&lt;pre&gt;&lt;font face=&quot;Helvetica&quot;&gt;break&lt;/font&gt;&lt;/pre&gt;&lt;/pre&gt;&lt;/pre&gt;&lt;/pre&gt;&lt;/pre&gt;&lt;/pre&gt;" style="rounded=0;whiteSpace=wrap;html=1;fontFamily=Helvetica;fontColor=#080808;" parent="1" vertex="1">
          <mxGeometry x="313.25" y="6750" width="135.5" height="30" as="geometry" />
        </mxCell>
        <mxCell id="y0orpuPkxlOEABBSiA5m-155" value="" style="endArrow=none;html=1;rounded=0;fontFamily=Helvetica;fontColor=#080808;exitX=0.5;exitY=1;exitDx=0;exitDy=0;entryX=0.5;entryY=0;entryDx=0;entryDy=0;" parent="1" edge="1">
          <mxGeometry width="50" height="50" relative="1" as="geometry">
            <mxPoint x="379.2300000000005" y="6650" as="sourcePoint" />
            <mxPoint x="379.2300000000005" y="6660" as="targetPoint" />
          </mxGeometry>
        </mxCell>
        <mxCell id="y0orpuPkxlOEABBSiA5m-156" value="" style="endArrow=none;html=1;rounded=0;fontFamily=Helvetica;fontColor=#080808;exitX=0.5;exitY=1;exitDx=0;exitDy=0;entryX=0.5;entryY=0;entryDx=0;entryDy=0;" parent="1" edge="1">
          <mxGeometry width="50" height="50" relative="1" as="geometry">
            <mxPoint x="380" y="6700" as="sourcePoint" />
            <mxPoint x="380" y="6710" as="targetPoint" />
          </mxGeometry>
        </mxCell>
        <mxCell id="y0orpuPkxlOEABBSiA5m-157" value="" style="endArrow=none;html=1;rounded=0;fontFamily=Helvetica;fontColor=#080808;exitX=0.5;exitY=1;exitDx=0;exitDy=0;entryX=0.5;entryY=0;entryDx=0;entryDy=0;" parent="1" edge="1">
          <mxGeometry width="50" height="50" relative="1" as="geometry">
            <mxPoint x="380.6199999999999" y="6740" as="sourcePoint" />
            <mxPoint x="380.6199999999999" y="6750" as="targetPoint" />
          </mxGeometry>
        </mxCell>
        <mxCell id="y0orpuPkxlOEABBSiA5m-158" value="" style="endArrow=none;html=1;rounded=0;fontFamily=Helvetica;fontColor=#080808;exitX=0.5;exitY=1;exitDx=0;exitDy=0;" parent="1" source="y0orpuPkxlOEABBSiA5m-154" edge="1">
          <mxGeometry width="50" height="50" relative="1" as="geometry">
            <mxPoint x="370" y="6710" as="sourcePoint" />
            <mxPoint x="381" y="6800" as="targetPoint" />
          </mxGeometry>
        </mxCell>
        <mxCell id="y0orpuPkxlOEABBSiA5m-159" value="" style="endArrow=none;html=1;rounded=0;fontFamily=Helvetica;fontColor=#080808;" parent="1" edge="1">
          <mxGeometry width="50" height="50" relative="1" as="geometry">
            <mxPoint x="380" y="6800" as="sourcePoint" />
            <mxPoint x="70" y="6800" as="targetPoint" />
          </mxGeometry>
        </mxCell>
        <mxCell id="y0orpuPkxlOEABBSiA5m-160" value="" style="endArrow=none;html=1;rounded=0;fontFamily=Helvetica;fontColor=#080808;endFill=0;" parent="1" edge="1">
          <mxGeometry width="50" height="50" relative="1" as="geometry">
            <mxPoint x="70" y="6800" as="sourcePoint" />
            <mxPoint x="80" y="5240" as="targetPoint" />
          </mxGeometry>
        </mxCell>
        <mxCell id="y0orpuPkxlOEABBSiA5m-161" value="" style="endArrow=classicThin;html=1;rounded=0;fontFamily=Helvetica;fontColor=#080808;entryX=0;entryY=0.5;entryDx=0;entryDy=0;endFill=1;" parent="1" target="y0orpuPkxlOEABBSiA5m-76" edge="1">
          <mxGeometry width="50" height="50" relative="1" as="geometry">
            <mxPoint x="80" y="5240" as="sourcePoint" />
            <mxPoint x="420" y="5310" as="targetPoint" />
          </mxGeometry>
        </mxCell>
        <mxCell id="y0orpuPkxlOEABBSiA5m-162" value="" style="endArrow=none;html=1;rounded=0;fontFamily=Helvetica;fontColor=#080808;exitX=0;exitY=0.5;exitDx=0;exitDy=0;" parent="1" source="y0orpuPkxlOEABBSiA5m-144" edge="1">
          <mxGeometry width="50" height="50" relative="1" as="geometry">
            <mxPoint x="330" y="6400" as="sourcePoint" />
            <mxPoint x="70" y="6475" as="targetPoint" />
          </mxGeometry>
        </mxCell>
        <mxCell id="y0orpuPkxlOEABBSiA5m-163" value="" style="endArrow=none;html=1;rounded=0;fontFamily=Helvetica;fontColor=#080808;exitX=0;exitY=0.5;exitDx=0;exitDy=0;" parent="1" source="y0orpuPkxlOEABBSiA5m-87" edge="1">
          <mxGeometry width="50" height="50" relative="1" as="geometry">
            <mxPoint x="290" y="5430" as="sourcePoint" />
            <mxPoint x="80" y="5450" as="targetPoint" />
          </mxGeometry>
        </mxCell>
        <mxCell id="y0orpuPkxlOEABBSiA5m-164" value="" style="endArrow=none;html=1;rounded=0;fontFamily=Helvetica;fontColor=#080808;entryX=0;entryY=0.5;entryDx=0;entryDy=0;" parent="1" target="y0orpuPkxlOEABBSiA5m-80" edge="1">
          <mxGeometry width="50" height="50" relative="1" as="geometry">
            <mxPoint x="80" y="5355" as="sourcePoint" />
            <mxPoint x="340" y="5380" as="targetPoint" />
          </mxGeometry>
        </mxCell>
        <mxCell id="y0orpuPkxlOEABBSiA5m-165" value="" style="endArrow=none;html=1;rounded=0;fontFamily=Helvetica;fontColor=#080808;exitX=1;exitY=0.5;exitDx=0;exitDy=0;" parent="1" source="y0orpuPkxlOEABBSiA5m-76" edge="1">
          <mxGeometry width="50" height="50" relative="1" as="geometry">
            <mxPoint x="1180" y="5920" as="sourcePoint" />
            <mxPoint x="1150" y="5240" as="targetPoint" />
          </mxGeometry>
        </mxCell>
        <mxCell id="y0orpuPkxlOEABBSiA5m-166" value="" style="endArrow=none;html=1;rounded=0;fontFamily=Helvetica;fontColor=#080808;" parent="1" edge="1">
          <mxGeometry width="50" height="50" relative="1" as="geometry">
            <mxPoint x="1150" y="6820" as="sourcePoint" />
            <mxPoint x="1150" y="5240" as="targetPoint" />
          </mxGeometry>
        </mxCell>
        <mxCell id="y0orpuPkxlOEABBSiA5m-167" value="" style="endArrow=none;html=1;rounded=0;fontFamily=Helvetica;fontColor=#080808;" parent="1" edge="1">
          <mxGeometry width="50" height="50" relative="1" as="geometry">
            <mxPoint x="389" y="6820" as="sourcePoint" />
            <mxPoint x="1149" y="6820" as="targetPoint" />
          </mxGeometry>
        </mxCell>
        <mxCell id="y0orpuPkxlOEABBSiA5m-168" value="" style="endArrow=classicThin;html=1;rounded=0;fontFamily=Helvetica;fontColor=#080808;endFill=1;" parent="1" edge="1">
          <mxGeometry width="50" height="50" relative="1" as="geometry">
            <mxPoint x="390" y="6820" as="sourcePoint" />
            <mxPoint x="390" y="6840" as="targetPoint" />
          </mxGeometry>
        </mxCell>
        <mxCell id="y0orpuPkxlOEABBSiA5m-169" value="&lt;pre style=&quot;background-color: rgb(255 , 255 , 255)&quot;&gt;&lt;font face=&quot;Helvetica&quot;&gt;Вывод: &quot;Спасибо за игру!&lt;br&gt;      Перезапустите программу, если хотите сыграть еще раз :)&quot;&lt;/font&gt;&lt;/pre&gt;" style="shape=parallelogram;perimeter=parallelogramPerimeter;whiteSpace=wrap;html=1;fixedSize=1;fontFamily=Helvetica;fontColor=#080808;" parent="1" vertex="1">
          <mxGeometry x="186.5" y="6840" width="410" height="40" as="geometry" />
        </mxCell>
        <mxCell id="y0orpuPkxlOEABBSiA5m-170" value="" style="endArrow=none;html=1;rounded=0;fontFamily=Helvetica;fontColor=#080808;entryX=0;entryY=0.5;entryDx=0;entryDy=0;endFill=0;" parent="1" target="y0orpuPkxlOEABBSiA5m-6" edge="1">
          <mxGeometry width="50" height="50" relative="1" as="geometry">
            <mxPoint x="90" y="3710" as="sourcePoint" />
            <mxPoint x="880" y="4100" as="targetPoint" />
          </mxGeometry>
        </mxCell>
        <mxCell id="y0orpuPkxlOEABBSiA5m-171" value="" style="endArrow=none;html=1;rounded=0;fontFamily=Helvetica;fontColor=#080808;endFill=0;startArrow=classicThin;startFill=1;" parent="1" edge="1">
          <mxGeometry width="50" height="50" relative="1" as="geometry">
            <mxPoint x="87.8" y="4639" as="sourcePoint" />
            <mxPoint x="88" y="3710" as="targetPoint" />
          </mxGeometry>
        </mxCell>
        <mxCell id="y0orpuPkxlOEABBSiA5m-172" value="&lt;pre style=&quot;background-color: rgb(255 , 255 , 255)&quot;&gt;&lt;font face=&quot;Helvetica&quot;&gt;Вывод: &quot;Ну, сыграем в следующий раз&lt;/font&gt;&quot;&lt;/pre&gt;" style="shape=parallelogram;perimeter=parallelogramPerimeter;whiteSpace=wrap;html=1;fixedSize=1;fontFamily=Helvetica;fontColor=#080808;" parent="1" vertex="1">
          <mxGeometry x="-390" y="6150" width="300" height="40" as="geometry" />
        </mxCell>
        <mxCell id="y0orpuPkxlOEABBSiA5m-173" value="" style="endArrow=none;html=1;rounded=0;fontFamily=Helvetica;fontColor=#080808;entryX=0.5;entryY=1;entryDx=0;entryDy=0;" parent="1" target="y0orpuPkxlOEABBSiA5m-172" edge="1">
          <mxGeometry width="50" height="50" relative="1" as="geometry">
            <mxPoint x="-240" y="6210" as="sourcePoint" />
            <mxPoint x="80" y="6200" as="targetPoint" />
          </mxGeometry>
        </mxCell>
        <mxCell id="y0orpuPkxlOEABBSiA5m-174" value="&lt;pre style=&quot;background-color: rgb(255 , 255 , 255)&quot;&gt;&lt;pre&gt;&lt;pre&gt;&lt;pre&gt;&lt;pre&gt;&lt;pre&gt;&lt;pre&gt;&lt;font face=&quot;Helvetica&quot;&gt;sys.exit()&lt;/font&gt;&lt;/pre&gt;&lt;/pre&gt;&lt;/pre&gt;&lt;/pre&gt;&lt;/pre&gt;&lt;/pre&gt;&lt;/pre&gt;" style="rounded=0;whiteSpace=wrap;html=1;fontFamily=Helvetica;fontColor=#080808;" parent="1" vertex="1">
          <mxGeometry x="-307.75" y="6210" width="135.5" height="30" as="geometry" />
        </mxCell>
        <mxCell id="oBk1mYRn44YAab1flwNJ-1" value="Вывод: &quot;&lt;span&gt;&amp;nbsp;Начнем игру!&lt;br&gt;&lt;/span&gt;&lt;span&gt;&amp;nbsp;Введите имя игрока:&lt;/span&gt;&quot;" style="shape=parallelogram;perimeter=parallelogramPerimeter;whiteSpace=wrap;html=1;fixedSize=1;" parent="1" vertex="1">
          <mxGeometry x="1921.87" y="3630" width="176.25" height="50" as="geometry" />
        </mxCell>
        <mxCell id="oBk1mYRn44YAab1flwNJ-2" value="" style="endArrow=none;html=1;rounded=0;entryX=0.5;entryY=1;entryDx=0;entryDy=0;exitX=0.5;exitY=0;exitDx=0;exitDy=0;" parent="1" source="oBk1mYRn44YAab1flwNJ-1" edge="1">
          <mxGeometry width="50" height="50" relative="1" as="geometry">
            <mxPoint x="2009.99" y="3620" as="sourcePoint" />
            <mxPoint x="2009.7100000000003" y="3610" as="targetPoint" />
          </mxGeometry>
        </mxCell>
        <mxCell id="oBk1mYRn44YAab1flwNJ-3" value="opt_name = input()" style="rounded=0;whiteSpace=wrap;html=1;" parent="1" vertex="1">
          <mxGeometry x="1930" y="3690" width="160" height="20" as="geometry" />
        </mxCell>
        <mxCell id="oBk1mYRn44YAab1flwNJ-4" value="" style="endArrow=none;html=1;rounded=0;entryX=0.5;entryY=1;entryDx=0;entryDy=0;" parent="1" edge="1">
          <mxGeometry width="50" height="50" relative="1" as="geometry">
            <mxPoint x="2010.0000000000002" y="3690" as="sourcePoint" />
            <mxPoint x="2009.7200000000005" y="3680" as="targetPoint" />
          </mxGeometry>
        </mxCell>
        <mxCell id="oBk1mYRn44YAab1flwNJ-5" value="players = [ ]" style="rounded=0;whiteSpace=wrap;html=1;" parent="1" vertex="1">
          <mxGeometry x="1929.99" y="3720" width="160" height="20" as="geometry" />
        </mxCell>
        <mxCell id="oBk1mYRn44YAab1flwNJ-6" value="" style="endArrow=none;html=1;rounded=0;entryX=0.5;entryY=1;entryDx=0;entryDy=0;" parent="1" edge="1">
          <mxGeometry width="50" height="50" relative="1" as="geometry">
            <mxPoint x="2009.99" y="3720" as="sourcePoint" />
            <mxPoint x="2009.7100000000003" y="3710" as="targetPoint" />
          </mxGeometry>
        </mxCell>
        <mxCell id="oBk1mYRn44YAab1flwNJ-7" value="да" style="text;html=1;strokeColor=none;fillColor=none;align=center;verticalAlign=middle;whiteSpace=wrap;rounded=0;" parent="1" vertex="1">
          <mxGeometry x="390" y="3728.33" width="30" height="20" as="geometry" />
        </mxCell>
        <mxCell id="oBk1mYRn44YAab1flwNJ-8" value="&lt;div&gt;&amp;nbsp;Вывод: &quot;Хотите расставить корабли на поле самостоятельно или сделать&amp;nbsp;&lt;/div&gt;&lt;div&gt;это действие автоматически?&amp;nbsp;&lt;/div&gt;&lt;div&gt;1 - самостоятельно, вводя координаты каждого корабля&amp;nbsp;&lt;/div&gt;&lt;div&gt;2 - автоматически (расстановка кораблей случайным образом)&amp;nbsp;&lt;/div&gt;&lt;div&gt;Примечание: при ошибке ввода данных будет выбрана автоматическая расстановка кораблей&quot;&lt;/div&gt;" style="shape=parallelogram;perimeter=parallelogramPerimeter;whiteSpace=wrap;html=1;fixedSize=1;" parent="1" vertex="1">
          <mxGeometry x="1780" y="3750" width="460" height="90" as="geometry" />
        </mxCell>
        <mxCell id="oBk1mYRn44YAab1flwNJ-9" value="" style="endArrow=none;html=1;rounded=0;entryX=0.5;entryY=1;entryDx=0;entryDy=0;" parent="1" edge="1">
          <mxGeometry width="50" height="50" relative="1" as="geometry">
            <mxPoint x="2010.0000000000002" y="3750" as="sourcePoint" />
            <mxPoint x="2009.7200000000005" y="3740" as="targetPoint" />
          </mxGeometry>
        </mxCell>
        <mxCell id="oBk1mYRn44YAab1flwNJ-10" value="choice_auto_var = input()" style="rounded=0;whiteSpace=wrap;html=1;" parent="1" vertex="1">
          <mxGeometry x="1929.99" y="3850" width="160" height="20" as="geometry" />
        </mxCell>
        <mxCell id="oBk1mYRn44YAab1flwNJ-11" value="" style="endArrow=none;html=1;rounded=0;entryX=0.5;entryY=1;entryDx=0;entryDy=0;" parent="1" edge="1">
          <mxGeometry width="50" height="50" relative="1" as="geometry">
            <mxPoint x="2009.99" y="3850" as="sourcePoint" />
            <mxPoint x="2009.7100000000003" y="3840" as="targetPoint" />
          </mxGeometry>
        </mxCell>
        <mxCell id="oBk1mYRn44YAab1flwNJ-14" value="1" style="ellipse;whiteSpace=wrap;html=1;aspect=fixed;" parent="1" vertex="1">
          <mxGeometry x="373" y="3740" width="30" height="30" as="geometry" />
        </mxCell>
        <mxCell id="oBk1mYRn44YAab1flwNJ-15" value="1" style="ellipse;whiteSpace=wrap;html=1;aspect=fixed;" parent="1" vertex="1">
          <mxGeometry x="1990" y="3570" width="40" height="40" as="geometry" />
        </mxCell>
        <mxCell id="oBk1mYRn44YAab1flwNJ-16" value="нет" style="text;html=1;strokeColor=none;fillColor=none;align=center;verticalAlign=middle;whiteSpace=wrap;rounded=0;" parent="1" vertex="1">
          <mxGeometry x="1547" y="3788.33" width="30" height="20" as="geometry" />
        </mxCell>
        <mxCell id="oBk1mYRn44YAab1flwNJ-17" value="&lt;div&gt;&amp;nbsp;Вывод: &quot;Выберите какими буквами вы хотите&amp;nbsp;&lt;/div&gt;&lt;div&gt;задавать координаты поля:&amp;nbsp;&lt;/div&gt;&lt;div&gt;1 - Кириллица_ru&amp;nbsp;&lt;/div&gt;&lt;div&gt;2 - Латиница_eng (будет выбран по умолчанию&amp;nbsp;&lt;/div&gt;&lt;div&gt;при ошибке введенных данных)&quot;&lt;/div&gt;" style="shape=parallelogram;perimeter=parallelogramPerimeter;whiteSpace=wrap;html=1;fixedSize=1;" parent="1" vertex="1">
          <mxGeometry x="1252.75" y="3670.33" width="400" height="78" as="geometry" />
        </mxCell>
        <mxCell id="oBk1mYRn44YAab1flwNJ-18" value="" style="endArrow=none;html=1;rounded=0;fontFamily=Helvetica;fontColor=#080808;entryX=0.5;entryY=1;entryDx=0;entryDy=0;" parent="1" edge="1">
          <mxGeometry width="50" height="50" relative="1" as="geometry">
            <mxPoint x="1452" y="3758.33" as="sourcePoint" />
            <mxPoint x="1452" y="3748.33" as="targetPoint" />
          </mxGeometry>
        </mxCell>
        <mxCell id="oBk1mYRn44YAab1flwNJ-19" value="letters_ru_eng = input()" style="rounded=0;whiteSpace=wrap;html=1;" parent="1" vertex="1">
          <mxGeometry x="1372" y="3758.33" width="160" height="20" as="geometry" />
        </mxCell>
        <mxCell id="oBk1mYRn44YAab1flwNJ-20" value="&lt;span&gt;choice_auto_var == 1&lt;/span&gt;" style="rhombus;whiteSpace=wrap;html=1;" parent="1" vertex="1">
          <mxGeometry x="1357" y="3788.33" width="190" height="40" as="geometry" />
        </mxCell>
        <mxCell id="oBk1mYRn44YAab1flwNJ-21" value="" style="endArrow=none;html=1;rounded=0;fontFamily=Helvetica;fontColor=#080808;entryX=0.5;entryY=1;entryDx=0;entryDy=0;exitX=0.5;exitY=0;exitDx=0;exitDy=0;" parent="1" source="oBk1mYRn44YAab1flwNJ-20" target="oBk1mYRn44YAab1flwNJ-19" edge="1">
          <mxGeometry width="50" height="50" relative="1" as="geometry">
            <mxPoint x="1562" y="3838.33" as="sourcePoint" />
            <mxPoint x="1612" y="3788.33" as="targetPoint" />
          </mxGeometry>
        </mxCell>
        <mxCell id="oBk1mYRn44YAab1flwNJ-22" value="" style="endArrow=none;html=1;rounded=0;fontFamily=Helvetica;fontColor=#080808;entryX=1;entryY=0.5;entryDx=0;entryDy=0;" parent="1" target="oBk1mYRn44YAab1flwNJ-20" edge="1">
          <mxGeometry width="50" height="50" relative="1" as="geometry">
            <mxPoint x="1602" y="3808.33" as="sourcePoint" />
            <mxPoint x="1502" y="3768.33" as="targetPoint" />
          </mxGeometry>
        </mxCell>
        <mxCell id="oBk1mYRn44YAab1flwNJ-23" value="" style="endArrow=none;html=1;rounded=0;exitX=0;exitY=0.5;exitDx=0;exitDy=0;" parent="1" edge="1">
          <mxGeometry width="50" height="50" relative="1" as="geometry">
            <mxPoint x="1357" y="3808.33" as="sourcePoint" />
            <mxPoint x="1302" y="3808.33" as="targetPoint" />
          </mxGeometry>
        </mxCell>
        <mxCell id="oBk1mYRn44YAab1flwNJ-24" value="" style="endArrow=classicThin;html=1;rounded=0;entryX=0.5;entryY=0;entryDx=0;entryDy=0;endFill=1;" parent="1" edge="1">
          <mxGeometry width="50" height="50" relative="1" as="geometry">
            <mxPoint x="1300" y="3808.33" as="sourcePoint" />
            <mxPoint x="1299.7199999999998" y="3838.33" as="targetPoint" />
          </mxGeometry>
        </mxCell>
        <mxCell id="oBk1mYRn44YAab1flwNJ-25" value="да" style="text;html=1;strokeColor=none;fillColor=none;align=center;verticalAlign=middle;whiteSpace=wrap;rounded=0;" parent="1" vertex="1">
          <mxGeometry x="1329.85" y="3788.33" width="30" height="20" as="geometry" />
        </mxCell>
        <mxCell id="oBk1mYRn44YAab1flwNJ-26" value="" style="endArrow=classicThin;html=1;rounded=0;entryX=0.5;entryY=0;entryDx=0;entryDy=0;endFill=1;" parent="1" edge="1">
          <mxGeometry width="50" height="50" relative="1" as="geometry">
            <mxPoint x="1602" y="3808.33" as="sourcePoint" />
            <mxPoint x="1601.7199999999998" y="3838.33" as="targetPoint" />
          </mxGeometry>
        </mxCell>
        <mxCell id="oBk1mYRn44YAab1flwNJ-27" value="&lt;pre style=&quot;background-color: rgb(255 , 255 , 255)&quot;&gt;&lt;font face=&quot;Helvetica&quot; color=&quot;#080808&quot;&gt;Game.letters = [&#39;А&#39;, &#39;Б&#39;, &#39;В&#39;, &#39;Г&#39;, &#39;Д&#39;, &#39;Е&#39;, &#39;Ж&#39;, &#39;З&#39;, &#39;И&#39;, &#39;К&#39;]&lt;/font&gt;&lt;/pre&gt;" style="rounded=0;whiteSpace=wrap;html=1;" parent="1" vertex="1">
          <mxGeometry x="1160" y="3838.33" width="280" height="20" as="geometry" />
        </mxCell>
        <mxCell id="oBk1mYRn44YAab1flwNJ-28" value="&lt;pre style=&quot;background-color: rgb(255 , 255 , 255)&quot;&gt;&lt;font face=&quot;Helvetica&quot; color=&quot;#080808&quot;&gt;Game.letters = (&#39;A&#39;, &#39;B&#39;, &#39;C&#39;, &#39;D&#39;, &#39;E&#39;, &#39;F&#39;, &#39;G&#39;, &#39;H&#39;, &#39;I&#39;, &#39;J&#39;)&lt;/font&gt;&lt;/pre&gt;" style="rounded=0;whiteSpace=wrap;html=1;" parent="1" vertex="1">
          <mxGeometry x="1462" y="3838.33" width="280" height="20" as="geometry" />
        </mxCell>
        <mxCell id="oBk1mYRn44YAab1flwNJ-29" value="" style="endArrow=none;html=1;rounded=0;fontFamily=Helvetica;fontColor=#080808;entryX=0.5;entryY=1;entryDx=0;entryDy=0;" parent="1" target="oBk1mYRn44YAab1flwNJ-27" edge="1">
          <mxGeometry width="50" height="50" relative="1" as="geometry">
            <mxPoint x="1300" y="3868.33" as="sourcePoint" />
            <mxPoint x="1122" y="3808.33" as="targetPoint" />
          </mxGeometry>
        </mxCell>
        <mxCell id="oBk1mYRn44YAab1flwNJ-30" value="" style="endArrow=none;html=1;rounded=0;fontFamily=Helvetica;fontColor=#080808;" parent="1" edge="1">
          <mxGeometry width="50" height="50" relative="1" as="geometry">
            <mxPoint x="1602" y="3868.33" as="sourcePoint" />
            <mxPoint x="1302" y="3868.33" as="targetPoint" />
          </mxGeometry>
        </mxCell>
        <mxCell id="oBk1mYRn44YAab1flwNJ-31" value="" style="endArrow=none;html=1;rounded=0;fontFamily=Helvetica;fontColor=#080808;entryX=0.5;entryY=1;entryDx=0;entryDy=0;" parent="1" edge="1">
          <mxGeometry width="50" height="50" relative="1" as="geometry">
            <mxPoint x="1601.6000000000004" y="3868.33" as="sourcePoint" />
            <mxPoint x="1601.6000000000004" y="3858.33" as="targetPoint" />
          </mxGeometry>
        </mxCell>
        <mxCell id="oBk1mYRn44YAab1flwNJ-32" value="2" style="ellipse;whiteSpace=wrap;html=1;aspect=fixed;" parent="1" vertex="1">
          <mxGeometry x="514.43" y="3818.33" width="30" height="30" as="geometry" />
        </mxCell>
        <mxCell id="oBk1mYRn44YAab1flwNJ-33" value="2" style="ellipse;whiteSpace=wrap;html=1;aspect=fixed;" parent="1" vertex="1">
          <mxGeometry x="1432" y="3620" width="40" height="40" as="geometry" />
        </mxCell>
        <mxCell id="oBk1mYRn44YAab1flwNJ-34" value="" style="endArrow=none;html=1;rounded=0;entryX=0.5;entryY=1;entryDx=0;entryDy=0;" parent="1" edge="1">
          <mxGeometry width="50" height="50" relative="1" as="geometry">
            <mxPoint x="1451.78" y="3670.33" as="sourcePoint" />
            <mxPoint x="1451.82" y="3660.33" as="targetPoint" />
          </mxGeometry>
        </mxCell>
        <mxCell id="oBk1mYRn44YAab1flwNJ-35" value="2" style="ellipse;whiteSpace=wrap;html=1;aspect=fixed;" parent="1" vertex="1">
          <mxGeometry x="224.42000000000002" y="3820" width="30" height="30" as="geometry" />
        </mxCell>
        <mxCell id="oBk1mYRn44YAab1flwNJ-37" value="while True:" style="rhombus;whiteSpace=wrap;html=1;fontFamily=Helvetica;fontColor=#080808;" parent="1" vertex="1">
          <mxGeometry x="336.64" y="4067" width="101.57" height="50" as="geometry" />
        </mxCell>
        <mxCell id="oBk1mYRn44YAab1flwNJ-38" value="" style="endArrow=none;html=1;rounded=0;fontFamily=Helvetica;fontColor=#080808;exitX=0.5;exitY=1;exitDx=0;exitDy=0;" parent="1" edge="1">
          <mxGeometry width="50" height="50" relative="1" as="geometry">
            <mxPoint x="388.87" y="4117" as="sourcePoint" />
            <mxPoint x="388.87" y="4127" as="targetPoint" />
          </mxGeometry>
        </mxCell>
        <mxCell id="oBk1mYRn44YAab1flwNJ-39" value="&lt;pre style=&quot;background-color: rgb(255 , 255 , 255)&quot;&gt;&lt;font face=&quot;Helvetica&quot;&gt;game.status_check(args*)&lt;/font&gt;&lt;/pre&gt;" style="rounded=0;whiteSpace=wrap;html=1;fontFamily=Helvetica;fontColor=#080808;" parent="1" vertex="1">
          <mxGeometry x="306.88" y="4127" width="159" height="30" as="geometry" />
        </mxCell>
        <mxCell id="oBk1mYRn44YAab1flwNJ-40" value="" style="endArrow=none;html=1;rounded=0;fontFamily=Helvetica;fontColor=#080808;entryX=0.5;entryY=1;entryDx=0;entryDy=0;exitX=0.5;exitY=0;exitDx=0;exitDy=0;" parent="1" source="oBk1mYRn44YAab1flwNJ-41" target="oBk1mYRn44YAab1flwNJ-39" edge="1">
          <mxGeometry width="50" height="50" relative="1" as="geometry">
            <mxPoint x="387.87" y="4167" as="sourcePoint" />
            <mxPoint x="427.87" y="4137" as="targetPoint" />
          </mxGeometry>
        </mxCell>
        <mxCell id="oBk1mYRn44YAab1flwNJ-41" value="&lt;pre style=&quot;background-color: rgb(255 , 255 , 255)&quot;&gt;&lt;font face=&quot;Helvetica&quot;&gt;if game.status ==&lt;/font&gt; &#39;before game&#39;:&lt;/pre&gt;" style="rhombus;whiteSpace=wrap;html=1;fontFamily=Helvetica;fontColor=#080808;" parent="1" vertex="1">
          <mxGeometry x="246.38000000000002" y="4167" width="280" height="50" as="geometry" />
        </mxCell>
        <mxCell id="oBk1mYRn44YAab1flwNJ-42" value="" style="endArrow=none;html=1;rounded=0;fontFamily=Helvetica;fontColor=#080808;entryX=1;entryY=0.5;entryDx=0;entryDy=0;" parent="1" target="oBk1mYRn44YAab1flwNJ-41" edge="1">
          <mxGeometry width="50" height="50" relative="1" as="geometry">
            <mxPoint x="557.87" y="4192" as="sourcePoint" />
            <mxPoint x="417.87" y="4237" as="targetPoint" />
          </mxGeometry>
        </mxCell>
        <mxCell id="oBk1mYRn44YAab1flwNJ-43" value="да" style="text;html=1;strokeColor=none;fillColor=none;align=center;verticalAlign=middle;whiteSpace=wrap;rounded=0;" parent="1" vertex="1">
          <mxGeometry x="519.3699999999999" y="4175" width="30" height="20" as="geometry" />
        </mxCell>
        <mxCell id="oBk1mYRn44YAab1flwNJ-44" value="&lt;pre style=&quot;background-color: rgb(255 , 255 , 255)&quot;&gt;&lt;font face=&quot;Helvetica&quot;&gt;game.add_player(players.pop(0))&lt;/font&gt;&lt;/pre&gt;" style="rounded=0;whiteSpace=wrap;html=1;fontFamily=Helvetica;fontColor=#080808;" parent="1" vertex="1">
          <mxGeometry x="455" y="5390" width="190" height="30" as="geometry" />
        </mxCell>
        <mxCell id="oBk1mYRn44YAab1flwNJ-45" value="&lt;pre style=&quot;background-color: rgb(255 , 255 , 255)&quot;&gt;&lt;font face=&quot;Helvetica&quot;&gt;game.add_player(players.pop(0))&lt;/font&gt;&lt;/pre&gt;" style="rounded=0;whiteSpace=wrap;html=1;fontFamily=Helvetica;fontColor=#080808;" parent="1" vertex="1">
          <mxGeometry x="475.63" y="4227" width="190" height="30" as="geometry" />
        </mxCell>
        <mxCell id="oBk1mYRn44YAab1flwNJ-46" value="" style="endArrow=classicThin;html=1;rounded=0;fontFamily=Helvetica;fontColor=#080808;endFill=1;" parent="1" edge="1">
          <mxGeometry width="50" height="50" relative="1" as="geometry">
            <mxPoint x="559.8" y="4192" as="sourcePoint" />
            <mxPoint x="559.8" y="4227" as="targetPoint" />
          </mxGeometry>
        </mxCell>
        <mxCell id="oBk1mYRn44YAab1flwNJ-47" value="&lt;pre style=&quot;background-color: rgb(255 , 255 , 255)&quot;&gt;&lt;font face=&quot;Helvetica&quot;&gt;if game.status ==&lt;/font&gt; &#39;game&#39;:&lt;/pre&gt;" style="rhombus;whiteSpace=wrap;html=1;fontFamily=Helvetica;fontColor=#080808;" parent="1" vertex="1">
          <mxGeometry x="272.13" y="4247" width="228.51" height="50" as="geometry" />
        </mxCell>
        <mxCell id="oBk1mYRn44YAab1flwNJ-48" value="да" style="text;html=1;strokeColor=none;fillColor=none;align=center;verticalAlign=middle;whiteSpace=wrap;rounded=0;" parent="1" vertex="1">
          <mxGeometry x="495.09000000000003" y="4270" width="30" height="20" as="geometry" />
        </mxCell>
        <mxCell id="oBk1mYRn44YAab1flwNJ-50" value="" style="endArrow=classicThin;html=1;rounded=0;fontFamily=Helvetica;fontColor=#080808;exitX=0.5;exitY=1;exitDx=0;exitDy=0;endFill=1;entryX=0.5;entryY=0;entryDx=0;entryDy=0;" parent="1" target="oBk1mYRn44YAab1flwNJ-47" edge="1">
          <mxGeometry width="50" height="50" relative="1" as="geometry">
            <mxPoint x="386.05" y="4217" as="sourcePoint" />
            <mxPoint x="386.0550000000001" y="4262" as="targetPoint" />
          </mxGeometry>
        </mxCell>
        <mxCell id="oBk1mYRn44YAab1flwNJ-51" value="&lt;pre style=&quot;background-color: rgb(255 , 255 , 255)&quot;&gt;&lt;pre&gt;&lt;font face=&quot;Helvetica&quot;&gt;Game.clear_screen()&lt;/font&gt;&lt;/pre&gt;&lt;/pre&gt;" style="rounded=0;whiteSpace=wrap;html=1;fontFamily=Helvetica;fontColor=#080808;" parent="1" vertex="1">
          <mxGeometry x="1485.37" y="4092" width="160" height="25" as="geometry" />
        </mxCell>
        <mxCell id="oBk1mYRn44YAab1flwNJ-52" value="" style="endArrow=none;html=1;rounded=0;fontFamily=Helvetica;fontColor=#080808;entryX=0.5;entryY=1;entryDx=0;entryDy=0;" parent="1" target="oBk1mYRn44YAab1flwNJ-51" edge="1">
          <mxGeometry width="50" height="50" relative="1" as="geometry">
            <mxPoint x="1565.37" y="4127" as="sourcePoint" />
            <mxPoint x="1515.37" y="4047" as="targetPoint" />
          </mxGeometry>
        </mxCell>
        <mxCell id="oBk1mYRn44YAab1flwNJ-53" value="&lt;pre style=&quot;background-color: rgb(255 , 255 , 255)&quot;&gt;&lt;pre&gt;&lt;pre&gt;&lt;font face=&quot;Helvetica&quot;&gt;game.active_player.message.append(&#39;Ждем приказа &lt;/font&gt;&lt;/pre&gt;&lt;pre&gt;&lt;font face=&quot;Helvetica&quot;&gt;(введите сначала букву, затем цифру): &#39;)&lt;/font&gt;&lt;/pre&gt;&lt;/pre&gt;&lt;/pre&gt;" style="rounded=0;whiteSpace=wrap;html=1;fontFamily=Helvetica;fontColor=#080808;" parent="1" vertex="1">
          <mxGeometry x="1410.05" y="4127" width="310.64" height="50" as="geometry" />
        </mxCell>
        <mxCell id="oBk1mYRn44YAab1flwNJ-54" value="" style="endArrow=none;html=1;rounded=0;fontFamily=Helvetica;fontColor=#080808;entryX=0.5;entryY=1;entryDx=0;entryDy=0;" parent="1" edge="1">
          <mxGeometry width="50" height="50" relative="1" as="geometry">
            <mxPoint x="1565.0500000000002" y="4187" as="sourcePoint" />
            <mxPoint x="1565.0500000000002" y="4177" as="targetPoint" />
          </mxGeometry>
        </mxCell>
        <mxCell id="oBk1mYRn44YAab1flwNJ-55" value="&lt;pre style=&quot;background-color: rgb(255 , 255 , 255)&quot;&gt;&lt;pre&gt;&lt;pre&gt;&lt;font face=&quot;Helvetica&quot;&gt;game.draw(arg*) &lt;/font&gt;&lt;/pre&gt;&lt;/pre&gt;&lt;/pre&gt;" style="rounded=0;whiteSpace=wrap;html=1;fontFamily=Helvetica;fontColor=#080808;" parent="1" vertex="1">
          <mxGeometry x="1485.05" y="4187" width="160" height="25" as="geometry" />
        </mxCell>
        <mxCell id="oBk1mYRn44YAab1flwNJ-56" value="" style="endArrow=none;html=1;rounded=0;fontFamily=Helvetica;fontColor=#080808;entryX=0.5;entryY=1;entryDx=0;entryDy=0;" parent="1" edge="1">
          <mxGeometry width="50" height="50" relative="1" as="geometry">
            <mxPoint x="1565.6899999999996" y="4222" as="sourcePoint" />
            <mxPoint x="1565.6899999999996" y="4212" as="targetPoint" />
          </mxGeometry>
        </mxCell>
        <mxCell id="oBk1mYRn44YAab1flwNJ-57" value="&lt;pre style=&quot;background-color: rgb(255 , 255 , 255)&quot;&gt;&lt;pre&gt;&lt;pre&gt;&lt;font face=&quot;Helvetica&quot;&gt;game.active_player.message.clear(arg*)&lt;/font&gt;&lt;/pre&gt;&lt;/pre&gt;&lt;/pre&gt;" style="rounded=0;whiteSpace=wrap;html=1;fontFamily=Helvetica;fontColor=#080808;" parent="1" vertex="1">
          <mxGeometry x="1455.21" y="4222" width="220.32" height="25" as="geometry" />
        </mxCell>
        <mxCell id="oBk1mYRn44YAab1flwNJ-58" value="&lt;pre style=&quot;background-color: rgb(255 , 255 , 255)&quot;&gt;&lt;pre&gt;&lt;pre&gt;&lt;pre&gt;&lt;font face=&quot;Helvetica&quot;&gt;shot_result = game.active_player.make_shot(game.next_player)&lt;/font&gt;&lt;/pre&gt;&lt;/pre&gt;&lt;/pre&gt;&lt;/pre&gt;" style="rounded=0;whiteSpace=wrap;html=1;fontFamily=Helvetica;fontColor=#080808;" parent="1" vertex="1">
          <mxGeometry x="1388.75" y="4257" width="353.25" height="25" as="geometry" />
        </mxCell>
        <mxCell id="oBk1mYRn44YAab1flwNJ-59" value="" style="endArrow=none;html=1;rounded=0;fontFamily=Helvetica;fontColor=#080808;entryX=0.5;entryY=1;entryDx=0;entryDy=0;exitX=0.5;exitY=0;exitDx=0;exitDy=0;" parent="1" source="oBk1mYRn44YAab1flwNJ-58" target="oBk1mYRn44YAab1flwNJ-57" edge="1">
          <mxGeometry width="50" height="50" relative="1" as="geometry">
            <mxPoint x="1533.8899999999999" y="4367" as="sourcePoint" />
            <mxPoint x="1583.8899999999999" y="4317" as="targetPoint" />
          </mxGeometry>
        </mxCell>
        <mxCell id="oBk1mYRn44YAab1flwNJ-67" value="" style="endArrow=none;html=1;rounded=0;exitX=1;exitY=0.5;exitDx=0;exitDy=0;" parent="1" source="oBk1mYRn44YAab1flwNJ-47" edge="1">
          <mxGeometry width="50" height="50" relative="1" as="geometry">
            <mxPoint x="580.63" y="4277" as="sourcePoint" />
            <mxPoint x="560.63" y="4272" as="targetPoint" />
          </mxGeometry>
        </mxCell>
        <mxCell id="oBk1mYRn44YAab1flwNJ-68" value="" style="endArrow=classicThin;html=1;rounded=0;fontFamily=Helvetica;fontColor=#080808;endFill=1;" parent="1" edge="1">
          <mxGeometry width="50" height="50" relative="1" as="geometry">
            <mxPoint x="560.63" y="4272" as="sourcePoint" />
            <mxPoint x="560.63" y="4297" as="targetPoint" />
          </mxGeometry>
        </mxCell>
        <mxCell id="oBk1mYRn44YAab1flwNJ-69" value="" style="endArrow=none;html=1;rounded=0;entryX=0.5;entryY=0;entryDx=0;entryDy=0;" parent="1" target="oBk1mYRn44YAab1flwNJ-51" edge="1">
          <mxGeometry width="50" height="50" relative="1" as="geometry">
            <mxPoint x="1565" y="4080" as="sourcePoint" />
            <mxPoint x="1610" y="4160" as="targetPoint" />
          </mxGeometry>
        </mxCell>
        <mxCell id="oBk1mYRn44YAab1flwNJ-70" value="3" style="ellipse;whiteSpace=wrap;html=1;aspect=fixed;" parent="1" vertex="1">
          <mxGeometry x="1545.05" y="4040" width="40" height="40" as="geometry" />
        </mxCell>
        <mxCell id="oBk1mYRn44YAab1flwNJ-71" value="3" style="ellipse;whiteSpace=wrap;html=1;aspect=fixed;" parent="1" vertex="1">
          <mxGeometry x="545.89" y="4297" width="30" height="30" as="geometry" />
        </mxCell>
        <mxCell id="oBk1mYRn44YAab1flwNJ-72" value="&lt;pre style=&quot;background-color: rgb(255 , 255 , 255)&quot;&gt;&lt;pre&gt;&lt;font face=&quot;Helvetica&quot;&gt;if shot_result == &#39;miss&#39;:&lt;/font&gt;&lt;/pre&gt;&lt;/pre&gt;" style="rhombus;whiteSpace=wrap;html=1;fontFamily=Helvetica;fontColor=#080808;" parent="1" vertex="1">
          <mxGeometry x="446.63000000000005" y="4337" width="228.51" height="40" as="geometry" />
        </mxCell>
        <mxCell id="oBk1mYRn44YAab1flwNJ-73" value="" style="endArrow=none;html=1;rounded=0;exitX=0.5;exitY=1;exitDx=0;exitDy=0;entryX=0.5;entryY=0;entryDx=0;entryDy=0;" parent="1" source="oBk1mYRn44YAab1flwNJ-71" target="oBk1mYRn44YAab1flwNJ-72" edge="1">
          <mxGeometry width="50" height="50" relative="1" as="geometry">
            <mxPoint x="680.63" y="4307" as="sourcePoint" />
            <mxPoint x="730.63" y="4257" as="targetPoint" />
          </mxGeometry>
        </mxCell>
        <mxCell id="oBk1mYRn44YAab1flwNJ-75" value="&lt;pre style=&quot;background-color: rgb(255 , 255 , 255)&quot;&gt;&lt;pre&gt;&lt;pre&gt;&lt;font face=&quot;Helvetica&quot;&gt;game.next_player.message.append(&#39;На этот раз {} промахнулся! &#39;&lt;/font&gt;&lt;/pre&gt;&lt;pre&gt;&lt;font face=&quot;Helvetica&quot;&gt;.format(game.active_player.name))(введите сначала букву, затем цифру): &#39;)&lt;/font&gt;&lt;br&gt;&lt;/pre&gt;&lt;/pre&gt;&lt;/pre&gt;" style="rounded=0;whiteSpace=wrap;html=1;fontFamily=Helvetica;fontColor=#080808;" parent="1" vertex="1">
          <mxGeometry x="1853" y="4100" width="428.17" height="50" as="geometry" />
        </mxCell>
        <mxCell id="oBk1mYRn44YAab1flwNJ-76" value="&lt;pre style=&quot;background-color: rgb(255 , 255 , 255)&quot;&gt;&lt;pre&gt;&lt;pre&gt;&lt;pre&gt;&lt;font face=&quot;Helvetica&quot;&gt;game.next_player.message.append(&#39;Ваш ход, {}! &#39;.format(game.next_player.name))&lt;/font&gt;&lt;/pre&gt;&lt;/pre&gt;&lt;/pre&gt;&lt;/pre&gt;" style="rounded=0;whiteSpace=wrap;html=1;fontFamily=Helvetica;fontColor=#080808;" parent="1" vertex="1">
          <mxGeometry x="1840" y="4160" width="454.17" height="30" as="geometry" />
        </mxCell>
        <mxCell id="oBk1mYRn44YAab1flwNJ-77" value="" style="endArrow=none;html=1;rounded=0;fontFamily=Helvetica;fontColor=#080808;exitX=0.5;exitY=0;exitDx=0;exitDy=0;" parent="1" edge="1">
          <mxGeometry width="50" height="50" relative="1" as="geometry">
            <mxPoint x="2072.035" y="4160" as="sourcePoint" />
            <mxPoint x="2071.9700000000003" y="4150" as="targetPoint" />
          </mxGeometry>
        </mxCell>
        <mxCell id="oBk1mYRn44YAab1flwNJ-78" value="&lt;pre style=&quot;background-color: rgb(255 , 255 , 255) ; color: rgb(8 , 8 , 8)&quot;&gt;&lt;font face=&quot;Helvetica&quot;&gt;game.change_players() &lt;/font&gt;&lt;/pre&gt;" style="rounded=0;whiteSpace=wrap;html=1;fontFamily=Helvetica;fontColor=#080808;" parent="1" vertex="1">
          <mxGeometry x="1989.05" y="4200" width="170" height="30" as="geometry" />
        </mxCell>
        <mxCell id="oBk1mYRn44YAab1flwNJ-79" value="" style="endArrow=none;html=1;rounded=0;fontFamily=Helvetica;fontColor=#080808;exitX=0.489;exitY=-0.026;exitDx=0;exitDy=0;exitPerimeter=0;" parent="1" source="oBk1mYRn44YAab1flwNJ-78" edge="1">
          <mxGeometry width="50" height="50" relative="1" as="geometry">
            <mxPoint x="2012.01" y="4240" as="sourcePoint" />
            <mxPoint x="2072.01" y="4190" as="targetPoint" />
          </mxGeometry>
        </mxCell>
        <mxCell id="oBk1mYRn44YAab1flwNJ-80" value="&lt;pre style=&quot;background-color: rgb(255 , 255 , 255) ; color: rgb(8 , 8 , 8)&quot;&gt;&lt;font face=&quot;Helvetica&quot;&gt;contintue&lt;/font&gt;&lt;/pre&gt;" style="rounded=0;whiteSpace=wrap;html=1;fontFamily=Helvetica;fontColor=#080808;" parent="1" vertex="1">
          <mxGeometry x="1989.05" y="4240" width="170" height="30" as="geometry" />
        </mxCell>
        <mxCell id="oBk1mYRn44YAab1flwNJ-81" value="" style="endArrow=none;html=1;rounded=0;fontFamily=Helvetica;fontColor=#080808;exitX=0.489;exitY=-0.026;exitDx=0;exitDy=0;exitPerimeter=0;" parent="1" edge="1">
          <mxGeometry width="50" height="50" relative="1" as="geometry">
            <mxPoint x="2073.88" y="4239.22" as="sourcePoint" />
            <mxPoint x="2073.71" y="4230" as="targetPoint" />
          </mxGeometry>
        </mxCell>
        <mxCell id="oBk1mYRn44YAab1flwNJ-82" value="4" style="ellipse;whiteSpace=wrap;html=1;aspect=fixed;" parent="1" vertex="1">
          <mxGeometry x="2054.05" y="4050" width="40" height="40" as="geometry" />
        </mxCell>
        <mxCell id="oBk1mYRn44YAab1flwNJ-83" value="4" style="ellipse;whiteSpace=wrap;html=1;aspect=fixed;" parent="1" vertex="1">
          <mxGeometry x="700.06" y="4341.71" width="30.57" height="30.57" as="geometry" />
        </mxCell>
        <mxCell id="oBk1mYRn44YAab1flwNJ-84" value="" style="endArrow=none;html=1;rounded=0;entryX=0.5;entryY=1;entryDx=0;entryDy=0;exitX=0.518;exitY=-0.004;exitDx=0;exitDy=0;exitPerimeter=0;" parent="1" source="oBk1mYRn44YAab1flwNJ-75" target="oBk1mYRn44YAab1flwNJ-82" edge="1">
          <mxGeometry width="50" height="50" relative="1" as="geometry">
            <mxPoint x="1880" y="4110" as="sourcePoint" />
            <mxPoint x="1930" y="4060" as="targetPoint" />
          </mxGeometry>
        </mxCell>
        <mxCell id="oBk1mYRn44YAab1flwNJ-85" value="" style="endArrow=classicThin;html=1;rounded=0;endFill=1;" parent="1" edge="1">
          <mxGeometry width="50" height="50" relative="1" as="geometry">
            <mxPoint x="675.14" y="4356.7" as="sourcePoint" />
            <mxPoint x="700.63" y="4357" as="targetPoint" />
          </mxGeometry>
        </mxCell>
        <mxCell id="oBk1mYRn44YAab1flwNJ-86" value="да" style="text;html=1;strokeColor=none;fillColor=none;align=center;verticalAlign=middle;whiteSpace=wrap;rounded=0;" parent="1" vertex="1">
          <mxGeometry x="665.6299999999999" y="4337" width="30" height="20" as="geometry" />
        </mxCell>
        <mxCell id="oBk1mYRn44YAab1flwNJ-88" value="&lt;pre style=&quot;background-color: rgb(255 , 255 , 255)&quot;&gt;&lt;pre&gt;&lt;font face=&quot;Helvetica&quot;&gt;if shot_result == &#39;retry&#39;:&lt;/font&gt;&lt;/pre&gt;&lt;/pre&gt;" style="rhombus;whiteSpace=wrap;html=1;fontFamily=Helvetica;fontColor=#080808;" parent="1" vertex="1">
          <mxGeometry x="447.26000000000016" y="4396.5" width="228.51" height="40" as="geometry" />
        </mxCell>
        <mxCell id="oBk1mYRn44YAab1flwNJ-89" value="&lt;pre style=&quot;background-color: rgb(255 , 255 , 255)&quot;&gt;&lt;pre&gt;&lt;pre&gt;&lt;pre&gt;&lt;pre&gt;&lt;font face=&quot;Helvetica&quot;&gt;game.active_player.message.append(&#39;Ошибка введенных данных. &lt;/font&gt;&lt;/pre&gt;&lt;pre&gt;&lt;font face=&quot;Helvetica&quot;&gt;Попробуйте еще раз! &#39;)&lt;/font&gt;&lt;/pre&gt;&lt;/pre&gt;&lt;/pre&gt;&lt;/pre&gt;&lt;/pre&gt;" style="rounded=0;whiteSpace=wrap;html=1;fontFamily=Helvetica;fontColor=#080808;" parent="1" vertex="1">
          <mxGeometry x="965.96" y="4025.5" width="382.16" height="50" as="geometry" />
        </mxCell>
        <mxCell id="oBk1mYRn44YAab1flwNJ-90" value="&lt;pre style=&quot;background-color: rgb(255 , 255 , 255) ; color: rgb(8 , 8 , 8)&quot;&gt;&lt;font face=&quot;Helvetica&quot;&gt;contintue&lt;/font&gt;&lt;/pre&gt;" style="rounded=0;whiteSpace=wrap;html=1;fontFamily=Helvetica;fontColor=#080808;" parent="1" vertex="1">
          <mxGeometry x="1072.04" y="4084.5" width="170" height="30" as="geometry" />
        </mxCell>
        <mxCell id="oBk1mYRn44YAab1flwNJ-91" value="" style="endArrow=none;html=1;rounded=0;fontFamily=Helvetica;fontColor=#080808;exitX=0.5;exitY=0;exitDx=0;exitDy=0;" parent="1" source="oBk1mYRn44YAab1flwNJ-90" target="oBk1mYRn44YAab1flwNJ-89" edge="1">
          <mxGeometry width="50" height="50" relative="1" as="geometry">
            <mxPoint x="1085.96" y="4104.5" as="sourcePoint" />
            <mxPoint x="1145.96" y="4104.5" as="targetPoint" />
          </mxGeometry>
        </mxCell>
        <mxCell id="oBk1mYRn44YAab1flwNJ-92" value="5" style="ellipse;whiteSpace=wrap;html=1;aspect=fixed;" parent="1" vertex="1">
          <mxGeometry x="1137.04" y="3970" width="40" height="40" as="geometry" />
        </mxCell>
        <mxCell id="oBk1mYRn44YAab1flwNJ-93" value="" style="endArrow=none;html=1;rounded=0;entryX=0.5;entryY=1;entryDx=0;entryDy=0;exitX=0.5;exitY=0;exitDx=0;exitDy=0;" parent="1" source="oBk1mYRn44YAab1flwNJ-89" target="oBk1mYRn44YAab1flwNJ-92" edge="1">
          <mxGeometry width="50" height="50" relative="1" as="geometry">
            <mxPoint x="1070" y="4120" as="sourcePoint" />
            <mxPoint x="1120" y="4070" as="targetPoint" />
          </mxGeometry>
        </mxCell>
        <mxCell id="oBk1mYRn44YAab1flwNJ-94" value="5" style="ellipse;whiteSpace=wrap;html=1;aspect=fixed;" parent="1" vertex="1">
          <mxGeometry x="700.6899999999999" y="4401.5" width="30" height="30" as="geometry" />
        </mxCell>
        <mxCell id="oBk1mYRn44YAab1flwNJ-95" value="" style="endArrow=classicThin;html=1;rounded=0;exitX=1;exitY=0.5;exitDx=0;exitDy=0;endFill=1;" parent="1" source="oBk1mYRn44YAab1flwNJ-88" edge="1">
          <mxGeometry width="50" height="50" relative="1" as="geometry">
            <mxPoint x="780.0700000000002" y="4436.5" as="sourcePoint" />
            <mxPoint x="701.26" y="4416.5" as="targetPoint" />
          </mxGeometry>
        </mxCell>
        <mxCell id="oBk1mYRn44YAab1flwNJ-96" value="да" style="text;html=1;strokeColor=none;fillColor=none;align=center;verticalAlign=middle;whiteSpace=wrap;rounded=0;" parent="1" vertex="1">
          <mxGeometry x="666.26" y="4396.5" width="30" height="20" as="geometry" />
        </mxCell>
        <mxCell id="oBk1mYRn44YAab1flwNJ-99" value="" style="endArrow=none;html=1;rounded=0;exitX=0.5;exitY=1;exitDx=0;exitDy=0;entryX=0.5;entryY=0;entryDx=0;entryDy=0;" parent="1" edge="1" source="oBk1mYRn44YAab1flwNJ-72">
          <mxGeometry width="50" height="50" relative="1" as="geometry">
            <mxPoint x="561.22" y="4386.5" as="sourcePoint" />
            <mxPoint x="561.2150000000001" y="4396.5" as="targetPoint" />
          </mxGeometry>
        </mxCell>
        <mxCell id="oBk1mYRn44YAab1flwNJ-100" value="&lt;pre style=&quot;background-color: rgb(255 , 255 , 255)&quot;&gt;&lt;pre&gt;&lt;font face=&quot;Helvetica&quot;&gt;if shot_result == &#39;catch&#39;:&lt;/font&gt;&lt;/pre&gt;&lt;/pre&gt;" style="rhombus;whiteSpace=wrap;html=1;fontFamily=Helvetica;fontColor=#080808;" parent="1" vertex="1">
          <mxGeometry x="446.0600000000002" y="4460" width="228.51" height="40" as="geometry" />
        </mxCell>
        <mxCell id="oBk1mYRn44YAab1flwNJ-101" value="&lt;pre style=&quot;background-color: rgb(255 , 255 , 255)&quot;&gt;&lt;pre&gt;&lt;pre&gt;&lt;pre&gt;&lt;pre&gt;&lt;pre&gt;&lt;font face=&quot;Helvetica&quot;&gt;game.active_player.message.append&lt;/font&gt;&lt;/pre&gt;&lt;pre&gt;&lt;font face=&quot;Helvetica&quot;&gt;(&#39;Отличный выстрел! Продолжайте! &#39;)&lt;/font&gt;&lt;/pre&gt;&lt;/pre&gt;&lt;/pre&gt;&lt;/pre&gt;&lt;/pre&gt;&lt;/pre&gt;" style="rounded=0;whiteSpace=wrap;html=1;fontFamily=Helvetica;fontColor=#080808;" parent="1" vertex="1">
          <mxGeometry x="1040" y="4237.5" width="232.16" height="50" as="geometry" />
        </mxCell>
        <mxCell id="oBk1mYRn44YAab1flwNJ-102" value="&lt;pre style=&quot;background-color: rgb(255 , 255 , 255) ; color: rgb(8 , 8 , 8)&quot;&gt;&lt;font face=&quot;Helvetica&quot;&gt;contintue&lt;/font&gt;&lt;/pre&gt;" style="rounded=0;whiteSpace=wrap;html=1;fontFamily=Helvetica;fontColor=#080808;" parent="1" vertex="1">
          <mxGeometry x="1071.08" y="4356.5" width="170" height="30" as="geometry" />
        </mxCell>
        <mxCell id="oBk1mYRn44YAab1flwNJ-103" value="" style="endArrow=none;html=1;rounded=0;fontFamily=Helvetica;fontColor=#080808;exitX=0.5;exitY=0;exitDx=0;exitDy=0;" parent="1" source="oBk1mYRn44YAab1flwNJ-102" target="oBk1mYRn44YAab1flwNJ-104" edge="1">
          <mxGeometry width="50" height="50" relative="1" as="geometry">
            <mxPoint x="1085" y="4316.5" as="sourcePoint" />
            <mxPoint x="1156" y="4376.5" as="targetPoint" />
          </mxGeometry>
        </mxCell>
        <mxCell id="oBk1mYRn44YAab1flwNJ-104" value="&lt;pre style=&quot;background-color: rgb(255 , 255 , 255)&quot;&gt;&lt;pre&gt;&lt;pre&gt;&lt;pre&gt;&lt;pre&gt;&lt;pre&gt;&lt;pre&gt;&lt;font face=&quot;Helvetica&quot;&gt;game.next_player.message.append&lt;/font&gt;&lt;/pre&gt;&lt;pre&gt;&lt;font face=&quot;Helvetica&quot;&gt;(&#39;Наш корабль попал под обстрел :( &#39;)&lt;/font&gt;&lt;/pre&gt;&lt;/pre&gt;&lt;/pre&gt;&lt;/pre&gt;&lt;/pre&gt;&lt;/pre&gt;&lt;/pre&gt;" style="rounded=0;whiteSpace=wrap;html=1;fontFamily=Helvetica;fontColor=#080808;" parent="1" vertex="1">
          <mxGeometry x="1040" y="4296.5" width="232.16" height="50" as="geometry" />
        </mxCell>
        <mxCell id="oBk1mYRn44YAab1flwNJ-105" value="" style="endArrow=none;html=1;rounded=0;fontFamily=Helvetica;fontColor=#080808;exitX=0.5;exitY=0;exitDx=0;exitDy=0;" parent="1" edge="1">
          <mxGeometry width="50" height="50" relative="1" as="geometry">
            <mxPoint x="1155.75" y="4296.5" as="sourcePoint" />
            <mxPoint x="1155.75" y="4287.5" as="targetPoint" />
          </mxGeometry>
        </mxCell>
        <mxCell id="oBk1mYRn44YAab1flwNJ-106" value="&lt;pre style=&quot;background-color: rgb(255 , 255 , 255)&quot;&gt;&lt;pre&gt;&lt;pre&gt;&lt;pre&gt;&lt;pre&gt;&lt;pre&gt;&lt;pre&gt;&lt;font face=&quot;Helvetica&quot;&gt;game.active_player.message.append&lt;/font&gt;&lt;/pre&gt;&lt;pre&gt;&lt;font face=&quot;Helvetica&quot;&gt;(&#39;Корабль противника уничтожен! Продолжайте! &#39;)&lt;/font&gt;&lt;/pre&gt;&lt;/pre&gt;&lt;/pre&gt;&lt;/pre&gt;&lt;/pre&gt;&lt;/pre&gt;&lt;/pre&gt;" style="rounded=0;whiteSpace=wrap;html=1;fontFamily=Helvetica;fontColor=#080808;" parent="1" vertex="1">
          <mxGeometry x="1072.04" y="4470" width="315" height="50" as="geometry" />
        </mxCell>
        <mxCell id="oBk1mYRn44YAab1flwNJ-107" value="&lt;pre style=&quot;background-color: rgb(255 , 255 , 255) ; color: rgb(8 , 8 , 8)&quot;&gt;&lt;font face=&quot;Helvetica&quot;&gt;contintue&lt;/font&gt;&lt;/pre&gt;" style="rounded=0;whiteSpace=wrap;html=1;fontFamily=Helvetica;fontColor=#080808;" parent="1" vertex="1">
          <mxGeometry x="1144.54" y="4589" width="170" height="30" as="geometry" />
        </mxCell>
        <mxCell id="oBk1mYRn44YAab1flwNJ-108" value="" style="endArrow=none;html=1;rounded=0;fontFamily=Helvetica;fontColor=#080808;exitX=0.5;exitY=0;exitDx=0;exitDy=0;" parent="1" source="oBk1mYRn44YAab1flwNJ-107" target="oBk1mYRn44YAab1flwNJ-109" edge="1">
          <mxGeometry width="50" height="50" relative="1" as="geometry">
            <mxPoint x="1117.04" y="4549" as="sourcePoint" />
            <mxPoint x="1188.04" y="4609" as="targetPoint" />
          </mxGeometry>
        </mxCell>
        <mxCell id="oBk1mYRn44YAab1flwNJ-109" value="&lt;pre style=&quot;background-color: rgb(255 , 255 , 255)&quot;&gt;&lt;pre&gt;&lt;pre&gt;&lt;pre&gt;&lt;pre&gt;&lt;pre&gt;&lt;pre&gt;&lt;pre&gt;&lt;font face=&quot;Helvetica&quot;&gt;game.next_player.message.append&lt;/font&gt;&lt;/pre&gt;&lt;pre&gt;&lt;font face=&quot;Helvetica&quot;&gt;(&#39;Плохие новости: наш корабль уничтожен :(&#39;)&lt;/font&gt;&lt;font face=&quot;JetBrains Mono, monospace&quot;&gt;&lt;br&gt;&lt;/font&gt;&lt;/pre&gt;&lt;/pre&gt;&lt;/pre&gt;&lt;/pre&gt;&lt;/pre&gt;&lt;/pre&gt;&lt;/pre&gt;&lt;/pre&gt;" style="rounded=0;whiteSpace=wrap;html=1;fontFamily=Helvetica;fontColor=#080808;" parent="1" vertex="1">
          <mxGeometry x="1072.04" y="4529" width="315.46" height="50" as="geometry" />
        </mxCell>
        <mxCell id="oBk1mYRn44YAab1flwNJ-110" value="" style="endArrow=none;html=1;rounded=0;fontFamily=Helvetica;fontColor=#080808;exitX=0.5;exitY=0;exitDx=0;exitDy=0;" parent="1" edge="1">
          <mxGeometry width="50" height="50" relative="1" as="geometry">
            <mxPoint x="1187.789999999999" y="4529" as="sourcePoint" />
            <mxPoint x="1187.789999999999" y="4520" as="targetPoint" />
          </mxGeometry>
        </mxCell>
        <mxCell id="oBk1mYRn44YAab1flwNJ-111" value="&lt;pre style=&quot;background-color: rgb(255 , 255 , 255)&quot;&gt;&lt;pre&gt;&lt;font face=&quot;Helvetica&quot;&gt;if shot_result == &#39;kill&#39;:&lt;/font&gt;&lt;/pre&gt;&lt;/pre&gt;" style="rhombus;whiteSpace=wrap;html=1;fontFamily=Helvetica;fontColor=#080808;" parent="1" vertex="1">
          <mxGeometry x="446.0600000000002" y="4518.83" width="228.51" height="40" as="geometry" />
        </mxCell>
        <mxCell id="oBk1mYRn44YAab1flwNJ-113" value="" style="endArrow=none;html=1;rounded=0;exitX=0.5;exitY=1;exitDx=0;exitDy=0;entryX=0.5;entryY=0;entryDx=0;entryDy=0;" parent="1" target="oBk1mYRn44YAab1flwNJ-100" edge="1">
          <mxGeometry width="50" height="50" relative="1" as="geometry">
            <mxPoint x="560.6100000000001" y="4436.5" as="sourcePoint" />
            <mxPoint x="560.605" y="4446.5" as="targetPoint" />
          </mxGeometry>
        </mxCell>
        <mxCell id="oBk1mYRn44YAab1flwNJ-114" value="" style="endArrow=none;html=1;rounded=0;exitX=0.5;exitY=1;exitDx=0;exitDy=0;entryX=0.5;entryY=0;entryDx=0;entryDy=0;" parent="1" edge="1" target="oBk1mYRn44YAab1flwNJ-111">
          <mxGeometry width="50" height="50" relative="1" as="geometry">
            <mxPoint x="560.0400000000001" y="4500" as="sourcePoint" />
            <mxPoint x="560.035" y="4510" as="targetPoint" />
          </mxGeometry>
        </mxCell>
        <mxCell id="oBk1mYRn44YAab1flwNJ-115" value="6" style="ellipse;whiteSpace=wrap;html=1;aspect=fixed;" parent="1" vertex="1">
          <mxGeometry x="700.6899999999999" y="4465" width="30" height="30" as="geometry" />
        </mxCell>
        <mxCell id="oBk1mYRn44YAab1flwNJ-116" value="7" style="ellipse;whiteSpace=wrap;html=1;aspect=fixed;" parent="1" vertex="1">
          <mxGeometry x="699.4899999999999" y="4523.83" width="30" height="30" as="geometry" />
        </mxCell>
        <mxCell id="oBk1mYRn44YAab1flwNJ-117" value="" style="endArrow=classicThin;html=1;rounded=0;exitX=1;exitY=0.5;exitDx=0;exitDy=0;endFill=1;" parent="1" edge="1">
          <mxGeometry width="50" height="50" relative="1" as="geometry">
            <mxPoint x="675.1999999999998" y="4480" as="sourcePoint" />
            <mxPoint x="700.69" y="4480" as="targetPoint" />
          </mxGeometry>
        </mxCell>
        <mxCell id="oBk1mYRn44YAab1flwNJ-118" value="да" style="text;html=1;strokeColor=none;fillColor=none;align=center;verticalAlign=middle;whiteSpace=wrap;rounded=0;" parent="1" vertex="1">
          <mxGeometry x="665.6899999999999" y="4460" width="30" height="20" as="geometry" />
        </mxCell>
        <mxCell id="oBk1mYRn44YAab1flwNJ-121" value="" style="endArrow=classicThin;html=1;rounded=0;exitX=1;exitY=0.5;exitDx=0;exitDy=0;endFill=1;" parent="1" edge="1">
          <mxGeometry width="50" height="50" relative="1" as="geometry">
            <mxPoint x="675.1999999999998" y="4538.83" as="sourcePoint" />
            <mxPoint x="700.69" y="4538.83" as="targetPoint" />
          </mxGeometry>
        </mxCell>
        <mxCell id="oBk1mYRn44YAab1flwNJ-122" value="да" style="text;html=1;strokeColor=none;fillColor=none;align=center;verticalAlign=middle;whiteSpace=wrap;rounded=0;" parent="1" vertex="1">
          <mxGeometry x="665.6899999999999" y="4518.83" width="30" height="20" as="geometry" />
        </mxCell>
        <mxCell id="oBk1mYRn44YAab1flwNJ-123" value="" style="endArrow=classic;html=1;rounded=0;fontFamily=Helvetica;fontColor=#080808;exitX=0.5;exitY=1;exitDx=0;exitDy=0;entryX=0.507;entryY=-0.001;entryDx=0;entryDy=0;entryPerimeter=0;" parent="1" edge="1" target="oBk1mYRn44YAab1flwNJ-124">
          <mxGeometry width="50" height="50" relative="1" as="geometry">
            <mxPoint x="388.28499999999985" y="4297" as="sourcePoint" />
            <mxPoint x="388" y="4550" as="targetPoint" />
          </mxGeometry>
        </mxCell>
        <mxCell id="oBk1mYRn44YAab1flwNJ-124" value="&lt;pre style=&quot;background-color: rgb(255 , 255 , 255)&quot;&gt;&lt;font face=&quot;Helvetica&quot;&gt;if game.status ==&lt;/font&gt; &#39;game over&#39;:&lt;/pre&gt;" style="rhombus;whiteSpace=wrap;html=1;fontFamily=Helvetica;fontColor=#080808;" parent="1" vertex="1">
          <mxGeometry x="261.61" y="4558.83" width="249.55" height="50" as="geometry" />
        </mxCell>
        <mxCell id="oBk1mYRn44YAab1flwNJ-125" value="&lt;pre style=&quot;background-color: rgb(255 , 255 , 255)&quot;&gt;&lt;pre&gt;&lt;font face=&quot;Helvetica&quot;&gt;Game.clear_screen()&lt;/font&gt;&lt;/pre&gt;&lt;/pre&gt;" style="rounded=0;whiteSpace=wrap;html=1;fontFamily=Helvetica;fontColor=#080808;" parent="1" vertex="1">
          <mxGeometry x="1682.05" y="4404" width="170" height="30" as="geometry" />
        </mxCell>
        <mxCell id="oBk1mYRn44YAab1flwNJ-126" value="&lt;pre style=&quot;background-color: rgb(255 , 255 , 255)&quot;&gt;&lt;pre&gt;&lt;pre&gt;&lt;font face=&quot;Helvetica&quot;&gt;game.next_player.play_ground.draw_play_ground(Play_ground_mark.main)&lt;/font&gt;&lt;/pre&gt;&lt;/pre&gt;&lt;/pre&gt;" style="rounded=0;whiteSpace=wrap;html=1;fontFamily=Helvetica;fontColor=#080808;" parent="1" vertex="1">
          <mxGeometry x="1557.05" y="4444" width="420" height="40" as="geometry" />
        </mxCell>
        <mxCell id="oBk1mYRn44YAab1flwNJ-127" value="" style="endArrow=none;html=1;rounded=0;fontFamily=Helvetica;fontColor=#080808;exitX=0.5;exitY=1;exitDx=0;exitDy=0;entryX=0.5;entryY=0;entryDx=0;entryDy=0;" parent="1" source="oBk1mYRn44YAab1flwNJ-125" target="oBk1mYRn44YAab1flwNJ-126" edge="1">
          <mxGeometry width="50" height="50" relative="1" as="geometry">
            <mxPoint x="1827.05" y="4384" as="sourcePoint" />
            <mxPoint x="1877.05" y="4334" as="targetPoint" />
          </mxGeometry>
        </mxCell>
        <mxCell id="oBk1mYRn44YAab1flwNJ-128" value="&lt;pre style=&quot;background-color: rgb(255 , 255 , 255)&quot;&gt;&lt;pre&gt;&lt;pre&gt;&lt;pre&gt;&lt;font face=&quot;Helvetica&quot;&gt;game.active_player.play_ground.draw_play_ground(Play_ground_mark.main)&lt;/font&gt;&lt;/pre&gt;&lt;/pre&gt;&lt;/pre&gt;&lt;/pre&gt;" style="rounded=0;whiteSpace=wrap;html=1;fontFamily=Helvetica;fontColor=#080808;" parent="1" vertex="1">
          <mxGeometry x="1558.05" y="4494" width="418" height="40" as="geometry" />
        </mxCell>
        <mxCell id="oBk1mYRn44YAab1flwNJ-129" value="" style="endArrow=none;html=1;rounded=0;fontFamily=Helvetica;fontColor=#080808;exitX=0.5;exitY=1;exitDx=0;exitDy=0;entryX=0.5;entryY=0;entryDx=0;entryDy=0;" parent="1" edge="1">
          <mxGeometry width="50" height="50" relative="1" as="geometry">
            <mxPoint x="1766.2800000000004" y="4484" as="sourcePoint" />
            <mxPoint x="1766.2800000000004" y="4494" as="targetPoint" />
          </mxGeometry>
        </mxCell>
        <mxCell id="oBk1mYRn44YAab1flwNJ-130" value="&lt;pre style=&quot;background-color: rgb(255 , 255 , 255)&quot;&gt;&lt;pre&gt;&lt;pre&gt;&lt;pre&gt;&lt;pre&gt;&lt;font face=&quot;Helvetica&quot;&gt;print(&#39;Это был последний корабль {}&#39;.format(game.next_player.name))&lt;/font&gt;&lt;/pre&gt;&lt;/pre&gt;&lt;/pre&gt;&lt;/pre&gt;&lt;/pre&gt;" style="rounded=0;whiteSpace=wrap;html=1;fontFamily=Helvetica;fontColor=#080808;" parent="1" vertex="1">
          <mxGeometry x="1556.55" y="4544" width="418" height="40" as="geometry" />
        </mxCell>
        <mxCell id="oBk1mYRn44YAab1flwNJ-131" value="&lt;pre style=&quot;background-color: rgb(255 , 255 , 255)&quot;&gt;&lt;pre&gt;&lt;pre&gt;&lt;pre&gt;&lt;pre&gt;&lt;pre&gt;&lt;font face=&quot;Helvetica&quot;&gt;print(&#39;{} выиграл эту игру! Тут можно только поздравить победителя!&#39;.format(game.active_player.name))&lt;/font&gt;&lt;/pre&gt;&lt;/pre&gt;&lt;/pre&gt;&lt;/pre&gt;&lt;/pre&gt;&lt;/pre&gt;" style="rounded=0;whiteSpace=wrap;html=1;fontFamily=Helvetica;fontColor=#080808;" parent="1" vertex="1">
          <mxGeometry x="1485.05" y="4594" width="580" height="30" as="geometry" />
        </mxCell>
        <mxCell id="oBk1mYRn44YAab1flwNJ-132" value="&lt;pre style=&quot;background-color: rgb(255 , 255 , 255)&quot;&gt;&lt;pre&gt;&lt;pre&gt;&lt;pre&gt;&lt;pre&gt;&lt;pre&gt;&lt;font face=&quot;Helvetica&quot;&gt;break&lt;/font&gt;&lt;/pre&gt;&lt;/pre&gt;&lt;/pre&gt;&lt;/pre&gt;&lt;/pre&gt;&lt;/pre&gt;" style="rounded=0;whiteSpace=wrap;html=1;fontFamily=Helvetica;fontColor=#080808;" parent="1" vertex="1">
          <mxGeometry x="1700.3" y="4634" width="135.5" height="30" as="geometry" />
        </mxCell>
        <mxCell id="oBk1mYRn44YAab1flwNJ-133" value="" style="endArrow=none;html=1;rounded=0;fontFamily=Helvetica;fontColor=#080808;exitX=0.5;exitY=1;exitDx=0;exitDy=0;entryX=0.5;entryY=0;entryDx=0;entryDy=0;" parent="1" edge="1">
          <mxGeometry width="50" height="50" relative="1" as="geometry">
            <mxPoint x="1766.2800000000004" y="4534" as="sourcePoint" />
            <mxPoint x="1766.2800000000004" y="4544" as="targetPoint" />
          </mxGeometry>
        </mxCell>
        <mxCell id="oBk1mYRn44YAab1flwNJ-134" value="" style="endArrow=none;html=1;rounded=0;fontFamily=Helvetica;fontColor=#080808;exitX=0.5;exitY=1;exitDx=0;exitDy=0;entryX=0.5;entryY=0;entryDx=0;entryDy=0;" parent="1" edge="1">
          <mxGeometry width="50" height="50" relative="1" as="geometry">
            <mxPoint x="1767.05" y="4584" as="sourcePoint" />
            <mxPoint x="1767.05" y="4594" as="targetPoint" />
          </mxGeometry>
        </mxCell>
        <mxCell id="oBk1mYRn44YAab1flwNJ-135" value="" style="endArrow=none;html=1;rounded=0;fontFamily=Helvetica;fontColor=#080808;exitX=0.5;exitY=1;exitDx=0;exitDy=0;entryX=0.5;entryY=0;entryDx=0;entryDy=0;" parent="1" edge="1">
          <mxGeometry width="50" height="50" relative="1" as="geometry">
            <mxPoint x="1767.6699999999998" y="4624" as="sourcePoint" />
            <mxPoint x="1767.6699999999998" y="4634" as="targetPoint" />
          </mxGeometry>
        </mxCell>
        <mxCell id="oBk1mYRn44YAab1flwNJ-136" value="" style="endArrow=none;html=1;rounded=0;exitX=0.5;exitY=0;exitDx=0;exitDy=0;" parent="1" source="oBk1mYRn44YAab1flwNJ-106" edge="1">
          <mxGeometry width="50" height="50" relative="1" as="geometry">
            <mxPoint x="1380" y="4610" as="sourcePoint" />
            <mxPoint x="1230" y="4460" as="targetPoint" />
          </mxGeometry>
        </mxCell>
        <mxCell id="oBk1mYRn44YAab1flwNJ-137" value="" style="endArrow=none;html=1;rounded=0;exitX=0.5;exitY=0;exitDx=0;exitDy=0;" parent="1" edge="1">
          <mxGeometry width="50" height="50" relative="1" as="geometry">
            <mxPoint x="1766.82" y="4404" as="sourcePoint" />
            <mxPoint x="1767.28" y="4394" as="targetPoint" />
          </mxGeometry>
        </mxCell>
        <mxCell id="oBk1mYRn44YAab1flwNJ-138" value="" style="endArrow=none;html=1;rounded=0;exitX=0.5;exitY=0;exitDx=0;exitDy=0;" parent="1" edge="1">
          <mxGeometry width="50" height="50" relative="1" as="geometry">
            <mxPoint x="1156.81" y="4237.5" as="sourcePoint" />
            <mxPoint x="1157.27" y="4227.5" as="targetPoint" />
          </mxGeometry>
        </mxCell>
        <mxCell id="oBk1mYRn44YAab1flwNJ-139" value="6" style="ellipse;whiteSpace=wrap;html=1;aspect=fixed;" parent="1" vertex="1">
          <mxGeometry x="1136.08" y="4187" width="40" height="40" as="geometry" />
        </mxCell>
        <mxCell id="oBk1mYRn44YAab1flwNJ-140" value="8" style="ellipse;whiteSpace=wrap;html=1;aspect=fixed;" parent="1" vertex="1">
          <mxGeometry x="1748.05" y="4352" width="40" height="40" as="geometry" />
        </mxCell>
        <mxCell id="oBk1mYRn44YAab1flwNJ-141" value="7" style="ellipse;whiteSpace=wrap;html=1;aspect=fixed;" parent="1" vertex="1">
          <mxGeometry x="1209.77" y="4420" width="40" height="40" as="geometry" />
        </mxCell>
        <mxCell id="oBk1mYRn44YAab1flwNJ-142" value="" style="endArrow=none;html=1;rounded=0;fontFamily=Helvetica;fontColor=#080808;entryX=0.505;entryY=1.005;entryDx=0;entryDy=0;entryPerimeter=0;startArrow=classicThin;startFill=1;" parent="1" edge="1">
          <mxGeometry width="50" height="50" relative="1" as="geometry">
            <mxPoint x="391.84" y="5349.75" as="sourcePoint" />
            <mxPoint x="391.16125000000017" y="5330" as="targetPoint" />
          </mxGeometry>
        </mxCell>
        <mxCell id="oBk1mYRn44YAab1flwNJ-143" value="7" style="ellipse;whiteSpace=wrap;html=1;aspect=fixed;" parent="1" vertex="1">
          <mxGeometry x="371.37999999999994" y="4619" width="30" height="30" as="geometry" />
        </mxCell>
        <mxCell id="oBk1mYRn44YAab1flwNJ-144" value="" style="endArrow=none;html=1;rounded=0;entryX=0.5;entryY=1;entryDx=0;entryDy=0;exitX=0.5;exitY=0;exitDx=0;exitDy=0;" parent="1" source="oBk1mYRn44YAab1flwNJ-143" target="oBk1mYRn44YAab1flwNJ-124" edge="1">
          <mxGeometry width="50" height="50" relative="1" as="geometry">
            <mxPoint x="407.62" y="4668.83" as="sourcePoint" />
            <mxPoint x="457.62" y="4618.83" as="targetPoint" />
          </mxGeometry>
        </mxCell>
        <mxCell id="oBk1mYRn44YAab1flwNJ-145" value="" style="endArrow=none;html=1;rounded=0;exitX=0.5;exitY=1;exitDx=0;exitDy=0;" parent="1" source="oBk1mYRn44YAab1flwNJ-143" edge="1">
          <mxGeometry width="50" height="50" relative="1" as="geometry">
            <mxPoint x="417.62" y="4608.83" as="sourcePoint" />
            <mxPoint x="247.62" y="4648.83" as="targetPoint" />
          </mxGeometry>
        </mxCell>
        <mxCell id="oBk1mYRn44YAab1flwNJ-146" value="" style="endArrow=none;html=1;rounded=0;" parent="1" edge="1">
          <mxGeometry width="50" height="50" relative="1" as="geometry">
            <mxPoint x="246" y="4650" as="sourcePoint" />
            <mxPoint x="246.38" y="4270" as="targetPoint" />
          </mxGeometry>
        </mxCell>
        <mxCell id="oBk1mYRn44YAab1flwNJ-147" value="" style="endArrow=classicThin;html=1;rounded=0;endFill=1;" parent="1" edge="1">
          <mxGeometry width="50" height="50" relative="1" as="geometry">
            <mxPoint x="250" y="4270" as="sourcePoint" />
            <mxPoint x="270" y="4270" as="targetPoint" />
          </mxGeometry>
        </mxCell>
        <mxCell id="oBk1mYRn44YAab1flwNJ-148" value="&lt;pre style=&quot;background-color: rgb(255 , 255 , 255)&quot;&gt;&lt;font face=&quot;Helvetica&quot;&gt;Вывод: &quot;Ну, сыграем в следующий раз&lt;/font&gt;&quot;&lt;/pre&gt;" style="shape=parallelogram;perimeter=parallelogramPerimeter;whiteSpace=wrap;html=1;fixedSize=1;fontFamily=Helvetica;fontColor=#080808;" parent="1" vertex="1">
          <mxGeometry x="-61.48999999999998" y="4640" width="300" height="40" as="geometry" />
        </mxCell>
        <mxCell id="oBk1mYRn44YAab1flwNJ-149" value="" style="endArrow=none;html=1;rounded=0;fontFamily=Helvetica;fontColor=#080808;entryX=0.5;entryY=1;entryDx=0;entryDy=0;" parent="1" target="oBk1mYRn44YAab1flwNJ-148" edge="1">
          <mxGeometry width="50" height="50" relative="1" as="geometry">
            <mxPoint x="88.51000000000047" y="4700" as="sourcePoint" />
            <mxPoint x="408.51" y="4690" as="targetPoint" />
          </mxGeometry>
        </mxCell>
        <mxCell id="oBk1mYRn44YAab1flwNJ-150" value="&lt;pre style=&quot;background-color: rgb(255 , 255 , 255)&quot;&gt;&lt;pre&gt;&lt;pre&gt;&lt;pre&gt;&lt;pre&gt;&lt;pre&gt;&lt;pre&gt;&lt;font face=&quot;Helvetica&quot;&gt;sys.exit()&lt;/font&gt;&lt;/pre&gt;&lt;/pre&gt;&lt;/pre&gt;&lt;/pre&gt;&lt;/pre&gt;&lt;/pre&gt;&lt;/pre&gt;" style="rounded=0;whiteSpace=wrap;html=1;fontFamily=Helvetica;fontColor=#080808;" parent="1" vertex="1">
          <mxGeometry x="20.760000000000016" y="4700" width="135.5" height="30" as="geometry" />
        </mxCell>
        <mxCell id="HuD0RSdotGv5mD4R09YY-1" value="" style="endArrow=none;html=1;rounded=0;startArrow=classicThin;startFill=1;" edge="1" parent="1">
          <mxGeometry width="50" height="50" relative="1" as="geometry">
            <mxPoint x="390" y="3980" as="sourcePoint" />
            <mxPoint x="240" y="3980" as="targetPoint" />
          </mxGeometry>
        </mxCell>
        <mxCell id="HuD0RSdotGv5mD4R09YY-4" value="" style="endArrow=none;html=1;rounded=0;fontFamily=Helvetica;fontColor=#080808;entryX=0.5;entryY=1;entryDx=0;entryDy=0;" edge="1" parent="1">
          <mxGeometry width="50" height="50" relative="1" as="geometry">
            <mxPoint x="88.11000000000044" y="4750" as="sourcePoint" />
            <mxPoint x="88.10999999999999" y="4730" as="targetPoint" />
          </mxGeometry>
        </mxCell>
        <mxCell id="HuD0RSdotGv5mD4R09YY-5" value="конец" style="rounded=1;whiteSpace=wrap;html=1;arcSize=50;" vertex="1" parent="1">
          <mxGeometry x="40.64" y="4740" width="95.74" height="30" as="geometry" />
        </mxCell>
        <mxCell id="HuD0RSdotGv5mD4R09YY-6" value="нет" style="text;html=1;strokeColor=none;fillColor=none;align=center;verticalAlign=middle;whiteSpace=wrap;rounded=0;" vertex="1" parent="1">
          <mxGeometry x="560.0000000000001" y="4436.5" width="30" height="20" as="geometry" />
        </mxCell>
        <mxCell id="HuD0RSdotGv5mD4R09YY-7" value="нет" style="text;html=1;strokeColor=none;fillColor=none;align=center;verticalAlign=middle;whiteSpace=wrap;rounded=0;" vertex="1" parent="1">
          <mxGeometry x="560.0000000000001" y="4376.5" width="30" height="20" as="geometry" />
        </mxCell>
        <mxCell id="HuD0RSdotGv5mD4R09YY-10" value="нет" style="text;html=1;strokeColor=none;fillColor=none;align=center;verticalAlign=middle;whiteSpace=wrap;rounded=0;" vertex="1" parent="1">
          <mxGeometry x="559.0000000000001" y="4500" width="30" height="20" as="geometry" />
        </mxCell>
        <mxCell id="HuD0RSdotGv5mD4R09YY-11" value="нет" style="text;html=1;strokeColor=none;fillColor=none;align=center;verticalAlign=middle;whiteSpace=wrap;rounded=0;" vertex="1" parent="1">
          <mxGeometry x="384.0000000000001" y="4217" width="30" height="20" as="geometry" />
        </mxCell>
        <mxCell id="HuD0RSdotGv5mD4R09YY-12" value="нет" style="text;html=1;strokeColor=none;fillColor=none;align=center;verticalAlign=middle;whiteSpace=wrap;rounded=0;" vertex="1" parent="1">
          <mxGeometry x="390.0000000000001" y="4296.5" width="30" height="20" as="geometry" />
        </mxCell>
        <mxCell id="HuD0RSdotGv5mD4R09YY-13" value="нет" style="text;html=1;strokeColor=none;fillColor=none;align=center;verticalAlign=middle;whiteSpace=wrap;rounded=0;" vertex="1" parent="1">
          <mxGeometry x="269.0100000000001" y="3690" width="30" height="20" as="geometry" />
        </mxCell>
      </root>
    </mxGraphModel>
  </diagram>
</mxfile>
